<svg xmlns="http://www.w3.org/2000/svg" width="32" height="32" viewBox="0 0 32 32"><title>instagram</title><g data-name="Layer 2"><g data-name="Layer 1"><path d="M16 0a16 16 0 1 0 16 16A16 16 0 0 0 16 0zm7 18.9a5.23 5.23 0 0 1-.32 1.7 3.48 3.48 0 0 1-.81 1.24 3.44 3.44 0 0 1-1.24.81 5.18 5.18 0 0 1-1.7.33h-5.78a5.19 5.19 0 0 1-1.7-.33 3.58 3.58 0 0 1-2.1-2A5 5 0 0 1 9 18.9v-5.78a5 5 0 0 1 .33-1.7 3.58 3.58 0 0 1 2.07-2.07A5.17 5.17 0 0 1 13.1 9h5.79a5.16 5.16 0 0 1 1.7.33 3.61 3.61 0 0 1 2.06 2.05 5.22 5.22 0 0 1 .32 1.7V16c.03 1.86.03 2.15.03 2.9z"></path><circle cx="16" cy="16" r="2.34"></circle><path d="M21.47 11.86a2.13 2.13 0 0 0-.52-.81 2.23 2.23 0 0 0-.81-.53 3.94 3.94 0 0 0-1.3-.24h-5.68a3.93 3.93 0 0 0-1.3.24A2.22 2.22 0 0 0 11 11a2.13 2.13 0 0 0-.52.81 3.87 3.87 0 0 0-.24 1.3v5.68a3.87 3.87 0 0 0 .24 1.3 2.15 2.15 0 0 0 .52.81 2.18 2.18 0 0 0 .81.53 3.88 3.88 0 0 0 1.3.24h5.68a3.89 3.89 0 0 0 1.3-.24 2.19 2.19 0 0 0 .81-.53 2.14 2.14 0 0 0 .52-.81 3.87 3.87 0 0 0 .24-1.3v-5.63a3.86 3.86 0 0 0-.19-1.3zM16 19.61A3.61 3.61 0 1 1 19.6 16a3.6 3.6 0 0 1-3.6 3.61zm3.75-6.51a.84.84 0 1 1 .84-.84.84.84 0 0 1-.84.84z"></path></g></g></svg>