<svg xmlns="http://www.w3.org/2000/svg" viewBox="0 0 100 33"><path d="M13.597 10.126c1.342 0 2.5.288 3.471.862.972.575 1.705 1.412 2.198 2.508.877-1.123 1.842-1.966 2.897-2.529 1.054-.56 2.293-.841 3.717-.841 2.136 0 3.785.644 4.95 1.932 1.164 1.287 1.746 3.218 1.746 5.79V32.35h-7.434V18.67c0-.957-.181-1.601-.536-1.93-.356-.328-.863-.493-1.52-.493-.438 0-.821.054-1.15.165-.328.11-.642.315-.944.616a2.933 2.933 0 0 0-.595.862c-.152.33-.227.795-.227 1.396v13.063h-7.435V18.67c0-.957-.18-1.601-.534-1.93-.356-.328-.863-.493-1.521-.493-.438 0-.82.054-1.15.165-.328.11-.642.315-.944.616a2.948 2.948 0 0 0-.596.862c-.15.33-.224.795-.224 1.396v13.063H.329V10.784h7.23v2.712c.711-1.014 2.176-3.37 6.038-3.37zM54.442 15.323c-.327-1.081-.862-2.006-1.6-2.773-.74-.766-1.72-1.362-2.938-1.787-1.22-.424-2.732-.637-4.54-.637-2.903 0-5.191.562-6.86 1.684-1.67 1.124-2.697 2.835-3.081 5.134l6.696.535c.247-1.424 1.22-2.135 2.915-2.135.795 0 1.453.205 1.973.614.521.412.78 1.152.78 2.22v.862l-3.245.164a27.667 27.667 0 0 0-4.067.515c-1.26.26-2.355.67-3.285 1.231a6.31 6.31 0 0 0-2.198 2.177c-.534.891-.801 1.994-.801 3.307 0 1.15.198 2.13.596 2.938.397.807.93 1.479 1.601 2.013a6.52 6.52 0 0 0 2.321 1.17c.877.247 1.793.37 2.752.37 1.424 0 2.65-.254 3.677-.76 1.028-.507 1.98-1.225 2.855-2.158v2.342h6.943V18.958c0-1.341-.164-2.552-.494-3.635zm-6.696 8.647c0 1.288-.375 2.253-1.128 2.895-.754.645-1.705.966-2.856.966-.766 0-1.363-.15-1.788-.452-.423-.301-.635-.807-.635-1.52 0-.711.28-1.286.842-1.725.561-.439 1.622-.698 3.184-.78l2.381-.125v.74zM66.892 22.609l-2.53 2.398v7.342H57.09V-.008h7.27v17.363l6.778-6.571h8.65l-7.791 7.476 8.098 14.09H72.25z"></path><path d="M99.671 20.97c0-1.643-.22-3.134-.657-4.476-.437-1.342-1.095-2.487-1.971-3.432-.878-.944-1.96-1.668-3.246-2.175-1.288-.507-2.78-.761-4.477-.761-1.7 0-3.226.262-4.582.781-1.354.521-2.505 1.282-3.448 2.28-.947.999-1.678 2.232-2.198 3.696-.522 1.466-.782 3.143-.782 5.032 0 3.561.916 6.3 2.752 8.216 1.835 1.917 4.561 2.877 8.175 2.877 2.903 0 5.232-.632 6.98-1.891 1.756-1.26 2.852-3.163 3.29-5.71h-6.943c-.41 1.507-1.546 2.26-3.409 2.26-1.206 0-2.087-.335-2.65-1.006-.56-.67-.91-1.789-1.048-3.348h14.214v-2.342zm-14.214-1.888c.11-1.15.466-2.054 1.07-2.712.602-.657 1.533-.986 2.793-.986 1.15 0 2.007.288 2.566.863.562.576.87 1.52.924 2.835h-7.353z"></path></svg>