<svg xmlns="http://www.w3.org/2000/svg" width="32" height="32" viewBox="0 0 32 32"><title>vimeo</title><g data-name="Layer 2"><path d="M16 0a16 16 0 1 0 16 16A16 16 0 0 0 16 0zm4.15 18.28Q17.29 22 15.3 22q-1.23 0-2.08-2.26l-1.13-4.16q-.63-2.27-1.35-2.27a4.32 4.32 0 0 0-1.1.66L9 13.12l2-1.82a4.63 4.63 0 0 1 2.1-1.3q1.63-.16 2 2.23.41 2.58.57 3.21.47 2.14 1 2.14T18 16.24a5.42 5.42 0 0 0 1-2.11q.13-1.2-.94-1.19a2.68 2.68 0 0 0-1 .22q1-3.37 4-3.27 2.17.06 2 2.8-.13 2.04-2.91 5.59z" data-name="Layer 1"></path></g></svg>