<svg xmlns="http://www.w3.org/2000/svg" viewBox="0 0 1175 295" width="1175" height="295" preserveAspectRatio="xMinYMin meet" style="width: 100%; height: 100%; transform: translate3d(0px, 0px, 0px);"><defs><clipPath id="__lottie_element_2"><rect width="1175" height="295" x="0" y="0"></rect></clipPath></defs><g clip-path="url(#__lottie_element_2)"><g transform="matrix(1.629056453704834,0,0,0.2755075693130493,-251.95904541015625,135.19459533691406)" opacity="0.00020000000000237607" style="display: none;"><g opacity="1" transform="matrix(1,0,0,1,201.86099243164062,434.6730041503906)"><path fill="rgb(255,255,255)" fill-opacity="1" d=" M-8.145999908447266,-31.70599937438965 C-4.317999839782715,-31.70599937438965 -1.0130000114440918,-30.885000228881836 1.7569999694824219,-29.2450008392334 C4.5289998054504395,-27.604000091552734 6.623000144958496,-25.215999603271484 8.027000427246094,-22.090999603271484 C10.531000137329102,-25.29400062561035 13.28499984741211,-27.700000762939453 16.295000076293945,-29.30500030517578 C19.302000045776367,-30.90399932861328 22.836999893188477,-31.70599937438965 26.899999618530273,-31.70599937438965 C32.99599838256836,-31.70599937438965 37.70000076293945,-29.868000030517578 41.027000427246094,-26.19300079345703 C44.34700012207031,-22.520999908447266 46.00699996948242,-17.01099967956543 46.00699996948242,-9.668999671936035 C46.00699996948242,-9.668999671936035 46.00699996948242,31.70599937438965 46.00699996948242,31.70599937438965 C46.00699996948242,31.70599937438965 24.792999267578125,31.70599937438965 24.792999267578125,31.70599937438965 C24.792999267578125,31.70599937438965 24.792999267578125,-7.324999809265137 24.792999267578125,-7.324999809265137 C24.792999267578125,-10.057999610900879 24.277999877929688,-11.895000457763672 23.264999389648438,-12.833000183105469 C22.249000549316406,-13.769000053405762 20.804000854492188,-14.239999771118164 18.92799949645996,-14.239999771118164 C17.677000045776367,-14.239999771118164 16.583999633789062,-14.085000038146973 15.645999908447266,-13.769000053405762 C14.710000038146973,-13.456999778747559 13.8149995803833,-12.871000289916992 12.95199966430664,-12.01200008392334 C12.25100040435791,-11.3100004196167 11.680999755859375,-10.48900032043457 11.253999710083008,-9.552000045776367 C10.821999549865723,-8.612000465393066 10.607000350952148,-7.283999919891357 10.607000350952148,-5.568999767303467 C10.607000350952148,-5.568999767303467 10.607000350952148,31.70599937438965 10.607000350952148,31.70599937438965 C10.607000350952148,31.70599937438965 -10.607999801635742,31.70599937438965 -10.607999801635742,31.70599937438965 C-10.607999801635742,31.70599937438965 -10.607999801635742,-7.324999809265137 -10.607999801635742,-7.324999809265137 C-10.607999801635742,-10.057999610900879 -11.119999885559082,-11.895000457763672 -12.130999565124512,-12.833000183105469 C-13.14799976348877,-13.769000053405762 -14.595000267028809,-14.239999771118164 -16.472000122070312,-14.239999771118164 C-17.719999313354492,-14.239999771118164 -18.812999725341797,-14.085000038146973 -19.750999450683594,-13.769000053405762 C-20.687999725341797,-13.456999778747559 -21.583999633789062,-12.871000289916992 -22.447999954223633,-12.01200008392334 C-23.148000717163086,-11.3100004196167 -23.716999053955078,-10.48900032043457 -24.145999908447266,-9.552000045776367 C-24.57699966430664,-8.612000465393066 -24.788000106811523,-7.283999919891357 -24.788000106811523,-5.568999767303467 C-24.788000106811523,-5.568999767303467 -24.788000106811523,31.70599937438965 -24.788000106811523,31.70599937438965 C-24.788000106811523,31.70599937438965 -46.00699996948242,31.70599937438965 -46.00699996948242,31.70599937438965 C-46.00699996948242,31.70599937438965 -46.00699996948242,-29.827999114990234 -46.00699996948242,-29.827999114990234 C-46.00699996948242,-29.827999114990234 -25.37700080871582,-29.827999114990234 -25.37700080871582,-29.827999114990234 C-25.37700080871582,-29.827999114990234 -25.37700080871582,-22.090999603271484 -25.37700080871582,-22.090999603271484 C-23.347000122070312,-24.98200035095215 -19.16699981689453,-31.70599937438965 -8.145999908447266,-31.70599937438965z"></path></g><g opacity="1" transform="matrix(1,0,0,1,282.0740051269531,435.4949951171875)"><path fill="rgb(255,255,255)" fill-opacity="1" d=" M28.18899917602539,-17.697999954223633 C27.256000518798828,-20.783000946044922 25.729000091552734,-23.422000885009766 23.621000289916992,-25.611000061035156 C21.511999130249023,-27.797000885009766 18.71500015258789,-29.499000549316406 15.239999771118164,-30.709999084472656 C11.76099967956543,-31.91900062561035 7.442999839782715,-32.527000427246094 2.2860000133514404,-32.527000427246094 C-6,-32.527000427246094 -12.527000427246094,-30.92300033569336 -17.288000106811523,-27.72100067138672 C-22.055999755859375,-24.514999389648438 -24.986000061035156,-19.634000778198242 -26.08099937438965,-13.071999549865723 C-26.08099937438965,-13.071999549865723 -6.974999904632568,-11.54699993133545 -6.974999904632568,-11.54699993133545 C-6.269000053405762,-15.609000205993652 -3.494999885559082,-17.63800048828125 1.3450000286102295,-17.63800048828125 C3.61299991607666,-17.63800048828125 5.48799991607666,-17.05299949645996 6.973999977111816,-15.883999824523926 C8.461000442504883,-14.708999633789062 9.199000358581543,-12.598999977111816 9.199000358581543,-9.552000045776367 C9.199000358581543,-9.552000045776367 9.199000358581543,-7.091000080108643 9.199000358581543,-7.091000080108643 C9.199000358581543,-7.091000080108643 -0.05999999865889549,-6.624000072479248 -0.05999999865889549,-6.624000072479248 C-4.201000213623047,-6.390999794006348 -8.067000389099121,-5.901000022888184 -11.663999557495117,-5.15500020980835 C-15.260000228881836,-4.413000106811523 -18.38599967956543,-3.243000030517578 -21.040000915527344,-1.6410000324249268 C-23.700000762939453,-0.03999999910593033 -25.788000106811523,2.0329999923706055 -27.312000274658203,4.570000171661377 C-28.83300018310547,7.11299991607666 -29.597000122070312,10.260000228881836 -29.597000122070312,14.008000373840332 C-29.597000122070312,17.288999557495117 -29.030000686645508,20.083999633789062 -27.895000457763672,22.391000747680664 C-26.761999130249023,24.691999435424805 -25.243000030517578,26.610000610351562 -23.32699966430664,28.132999420166016 C-21.410999298095703,29.656999588012695 -19.20400047302246,30.770000457763672 -16.702999114990234,31.472999572753906 C-14.201000213623047,32.178001403808594 -11.588000297546387,32.527000427246094 -8.85200023651123,32.527000427246094 C-4.788000106811523,32.527000427246094 -1.2879999876022339,31.80500030517578 1.6419999599456787,30.36199951171875 C4.572000026702881,28.913999557495117 7.2870001792907715,26.864999771118164 9.78600025177002,24.202999114990234 C9.78600025177002,24.202999114990234 9.78600025177002,30.884000778198242 9.78600025177002,30.884000778198242 C9.78600025177002,30.884000778198242 29.597999572753906,30.884000778198242 29.597999572753906,30.884000778198242 C29.597999572753906,30.884000778198242 29.597999572753906,-7.327000141143799 29.597999572753906,-7.327000141143799 C29.597999572753906,-11.152999877929688 29.131000518798828,-14.607000350952148 28.18899917602539,-17.697999954223633z M9.083000183105469,6.973999977111816 C9.083000183105469,10.649999618530273 8.01200008392334,13.404999732971191 5.861999988555908,15.237000465393066 C3.7109999656677246,17.07699966430664 0.996999979019165,17.992000579833984 -2.2850000858306885,17.992000579833984 C-4.4710001945495605,17.992000579833984 -6.175000190734863,17.562000274658203 -7.38700008392334,16.702999114990234 C-8.595999717712402,15.843000411987305 -9.201000213623047,14.399999618530273 -9.201000213623047,12.366999626159668 C-9.201000213623047,10.335000038146973 -8.399999618530273,8.696000099182129 -6.796999931335449,7.443999767303467 C-5.196000099182129,6.191999912261963 -2.1700000762939453,5.451000213623047 2.2860000133514404,5.216000080108643 C2.2860000133514404,5.216000080108643 9.083000183105469,4.861999988555908 9.083000183105469,4.861999988555908 C9.083000183105469,4.861999988555908 9.083000183105469,6.973999977111816 9.083000183105469,6.973999977111816z"></path></g><g opacity="1" transform="matrix(1,0,0,1,350.6419982910156,420.21600341796875)"><path fill="rgb(255,255,255)" fill-opacity="1" d=" M-4.853000164031982,18.3700008392334 C-4.853000164031982,18.3700008392334 -12.07699966430664,25.211999893188477 -12.07699966430664,25.211999893188477 C-12.07699966430664,25.211999893188477 -12.07699966430664,46.16299819946289 -12.07699966430664,46.16299819946289 C-12.07699966430664,46.16299819946289 -32.823001861572266,46.16299819946289 -32.823001861572266,46.16299819946289 C-32.823001861572266,46.16299819946289 -32.823001861572266,-46.16400146484375 -32.823001861572266,-46.16400146484375 C-32.823001861572266,-46.16400146484375 -12.07699966430664,-46.16400146484375 -12.07699966430664,-46.16400146484375 C-12.07699966430664,-46.16400146484375 -12.07699966430664,3.380000114440918 -12.07699966430664,3.380000114440918 C-12.07699966430664,3.380000114440918 7.263000011444092,-15.371000289916992 7.263000011444092,-15.371000289916992 C7.263000011444092,-15.371000289916992 31.94499969482422,-15.371000289916992 31.94499969482422,-15.371000289916992 C31.94499969482422,-15.371000289916992 9.71500015258789,5.961999893188477 9.71500015258789,5.961999893188477 C9.71500015258789,5.961999893188477 32.823001861572266,46.16299819946289 32.823001861572266,46.16299819946289 C32.823001861572266,46.16299819946289 10.430000305175781,46.16299819946289 10.430000305175781,46.16299819946289 C10.430000305175781,46.16299819946289 -4.853000164031982,18.3700008392334 -4.853000164031982,18.3700008392334z"></path></g><g opacity="1" transform="matrix(1,0,0,1,408.843994140625,435.61199951171875)"><path fill="rgb(255,255,255)" fill-opacity="1" d=" M30.47599983215332,-1.6990000009536743 C30.47599983215332,-6.388999938964844 29.849000930786133,-10.645000457763672 28.60099983215332,-14.473999977111816 C27.35300064086914,-18.302000045776367 25.47800064086914,-21.56999969482422 22.97599983215332,-24.267000198364258 C20.472000122070312,-26.961999893188477 17.38599967956543,-29.027000427246094 13.71399974822998,-30.474000930786133 C10.039999961853027,-31.91900062561035 5.783999919891357,-32.645999908447266 0.9380000233650208,-32.645999908447266 C-3.9089999198913574,-32.645999908447266 -8.265000343322754,-31.898000717163086 -12.13599967956543,-30.415000915527344 C-15.99899959564209,-28.92799949645996 -19.281999588012695,-26.759000778198242 -21.974000930786133,-23.910999298095703 C-24.677000045776367,-21.059999465942383 -26.76300048828125,-17.540000915527344 -28.2450008392334,-13.362000465393066 C-29.732999801635742,-9.180000305175781 -30.47599983215332,-4.396999835968018 -30.47599983215332,0.9959999918937683 C-30.47599983215332,11.156000137329102 -27.86199951171875,18.972000122070312 -22.624000549316406,24.43899917602539 C-17.38800048828125,29.908000946044922 -9.607999801635742,32.645999908447266 0.7039999961853027,32.645999908447266 C8.987000465393066,32.645999908447266 15.631999969482422,30.844999313354492 20.621999740600586,27.250999450683594 C25.6299991607666,23.656999588012695 28.756999969482422,18.22599983215332 30.006999969482422,10.961000442504883 C30.006999969482422,10.961000442504883 10.196000099182129,10.961000442504883 10.196000099182129,10.961000442504883 C9.026000022888184,15.260000228881836 5.783999919891357,17.408000946044922 0.4699999988079071,17.408000946044922 C-2.9719998836517334,17.408000946044922 -5.486999988555908,16.45199966430664 -7.091000080108643,14.53600025177002 C-8.692000389099121,12.621999740600586 -9.6899995803833,9.432000160217285 -10.083000183105469,4.982999801635742 C-10.083000183105469,4.982999801635742 30.47599983215332,4.982999801635742 30.47599983215332,4.982999801635742 C30.47599983215332,4.982999801635742 30.47599983215332,-1.6990000009536743 30.47599983215332,-1.6990000009536743z M-10.083000183105469,-7.091000080108643 C-9.767000198364258,-10.371999740600586 -8.753000259399414,-12.951000213623047 -7.0320000648498535,-14.82699966430664 C-5.313000202178955,-16.702999114990234 -2.6549999713897705,-17.641000747680664 0.9380000233650208,-17.641000747680664 C4.21999979019165,-17.641000747680664 6.664999961853027,-16.820999145507812 8.262999534606934,-15.180000305175781 C9.866000175476074,-13.536999702453613 10.743000030517578,-10.843000411987305 10.89900016784668,-7.091000080108643 C10.89900016784668,-7.091000080108643 -10.083000183105469,-7.091000080108643 -10.083000183105469,-7.091000080108643z"></path></g></g><g style="display: block;" transform="matrix(1.6299999952316284,0,0,1.6299999952316284,1.4833984375,84.5302963256836)" opacity="1"><path stroke-linecap="butt" stroke-linejoin="miter" fill-opacity="0" stroke-miterlimit="4" stroke="rgb(255,255,255)" stroke-opacity="1" stroke-width="1" d=" M1.87,23.9 C1.87,23.9 20.08,23.9 20.08,23.9 C20.08,23.9 20.08,82.44 20.08,82.44 C20.08,82.44 1.87,82.44 1.87,82.44 C1.87,82.44 1.87,23.9 1.87,23.9z M0.37,22.4 M0.37,83.94 C0.37,83.94 21.58,83.94 21.58,83.94 C21.58,83.94 21.58,22.4 21.58,22.4 C21.58,22.4 0.37,22.4 0.37,22.4 C0.37,22.4 0.37,83.94 0.37,83.94z M1.75,1.75 C1.75,1.75 20.2,1.75 20.2,1.75 C20.2,1.75 20.2,14.11 20.2,14.11 C20.2,14.11 1.75,14.11 1.75,14.11 C1.75,14.11 1.75,1.75 1.75,1.75z M0.25,0.25 M0.25,15.61 C0.25,15.61 21.7,15.61 21.7,15.61 C21.7,15.61 21.7,0.25 21.7,0.25 C21.7,0.25 0.25,0.25 0.25,0.25 C0.25,0.25 0.25,15.61 0.25,15.61z M102.83,22.03 C108.68,22.03 112.96,23.7 115.93,27.14 C118.92,30.59 120.43,35.78 120.43,42.57 C120.43,42.57 120.43,82.44 120.43,82.44 C120.43,82.44 102.22,82.44 102.22,82.44 C102.22,82.44 102.22,44.91 102.22,44.91 C102.22,42.11 101.66,40.07 100.53,38.68 C99.33,37.23 97.43,36.49 94.86,36.49 C91.95,36.49 89.59,37.39 87.82,39.16 C85.97,41.01 85.03,43.53 85.03,46.67 C85.03,46.67 85.03,82.44 85.03,82.44 C85.03,82.44 66.82,82.44 66.82,82.44 C66.82,82.44 66.82,44.91 66.82,44.91 C66.82,42.11 66.26,40.07 65.13,38.68 C63.93,37.23 62.03,36.49 59.46,36.49 C56.55,36.49 54.18,37.39 52.42,39.16 C50.57,41.01 49.63,43.53 49.63,46.67 C49.63,46.67 49.63,82.44 49.63,82.44 C49.63,82.44 31.42,82.44 31.42,82.44 C31.42,82.44 31.42,23.9 31.42,23.9 C31.42,23.9 49.05,23.9 49.05,23.9 C49.05,23.9 49.05,29.55 49.05,29.55 C49.05,29.55 49.05,34.31 49.05,34.31 C49.05,34.31 51.78,30.42 51.78,30.42 C55.73,24.77 60.97,22.03 67.78,22.03 C71.32,22.03 74.39,22.79 76.92,24.28 C79.41,25.75 81.31,27.93 82.59,30.76 C82.59,30.76 83.62,33.05 83.62,33.05 C83.62,33.05 85.15,31.05 85.15,31.05 C87.5,27.97 90.14,25.67 93.01,24.21 C95.87,22.76 99.18,22.03 102.83,22.03z M102.83,20.53 C98.92,20.53 95.42,21.31 92.34,22.87 C89.25,24.44 86.45,26.86 83.95,30.14 C82.55,27.02 80.46,24.63 77.68,22.99 C74.91,21.35 71.61,20.53 67.78,20.53 C60.51,20.53 54.77,23.54 50.55,29.55 C50.55,29.55 50.55,22.4 50.55,22.4 C50.55,22.4 29.92,22.4 29.92,22.4 C29.92,22.4 29.92,83.94 29.92,83.94 C29.92,83.94 51.13,83.94 51.13,83.94 C51.13,83.94 51.13,46.67 51.13,46.67 C51.13,43.93 51.91,41.78 53.48,40.22 C54.96,38.74 56.96,37.99 59.46,37.99 C61.57,37.99 63.07,38.54 63.97,39.64 C64.87,40.73 65.32,42.49 65.32,44.91 C65.32,44.91 65.32,83.94 65.32,83.94 C65.32,83.94 86.53,83.94 86.53,83.94 C86.53,83.94 86.53,46.67 86.53,46.67 C86.53,43.93 87.31,41.78 88.88,40.22 C90.36,38.74 92.35,37.99 94.86,37.99 C96.97,37.99 98.47,38.54 99.37,39.64 C100.27,40.73 100.72,42.49 100.72,44.91 C100.72,44.91 100.72,83.94 100.72,83.94 C100.72,83.94 121.93,83.94 121.93,83.94 C121.93,83.94 121.93,42.57 121.93,42.57 C121.93,35.38 120.31,29.91 117.07,26.16 C113.83,22.4 109.08,20.53 102.83,20.53z M158.48,22.03 C167.35,22.03 173.94,23.98 178.09,27.84 C182.21,31.67 184.29,37.69 184.29,45.73 C184.29,45.73 184.29,82.44 184.29,82.44 C184.29,82.44 167.48,82.44 167.48,82.44 C167.48,82.44 167.48,77.26 167.48,77.26 C167.48,77.26 167.48,73.49 167.48,73.49 C167.48,73.49 164.89,76.23 164.89,76.23 C162.31,78.97 159.59,80.98 156.81,82.22 C154.05,83.46 150.87,84.08 147.35,84.08 C141.35,84.08 136.57,82.54 133.17,79.48 C129.76,76.43 128.1,72.37 128.1,67.06 C128.1,61.04 130.27,56.59 134.73,53.46 C139.31,50.25 146.54,48.38 156.21,47.93 C156.21,47.93 165.47,47.46 165.47,47.46 C165.47,47.46 166.9,47.39 166.9,47.39 C166.9,47.39 166.9,45.96 166.9,45.96 C166.9,45.96 166.9,43.5 166.9,43.5 C166.9,37.32 163.57,33.91 157.54,33.91 C151.42,33.91 148.98,36.93 148.06,39.91 C148.06,39.91 131.9,38.62 131.9,38.62 C134.39,27.46 143.1,22.03 158.48,22.03z M153.91,72.55 C157.81,72.55 160.97,71.4 163.28,69.13 C165.6,66.85 166.78,63.79 166.78,60.03 C166.78,60.03 166.78,57.92 166.78,57.92 C166.78,57.92 166.78,56.34 166.78,56.34 C166.78,56.34 165.2,56.42 165.2,56.42 C165.2,56.42 158.39,56.78 158.39,56.78 C154.12,57.03 151.03,57.77 148.96,59.05 C146.69,60.45 145.49,62.65 145.49,65.42 C145.49,68.08 146.59,72.55 153.91,72.55z M158.48,20.53 C141.68,20.53 132.22,27.02 130.11,39.99 C130.11,39.99 149.22,41.51 149.22,41.51 C149.92,37.45 152.7,35.41 157.54,35.41 C162.78,35.41 165.4,38.11 165.4,43.5 C165.4,43.5 165.4,45.96 165.4,45.96 C165.4,45.96 156.14,46.43 156.14,46.43 C146.13,46.9 138.71,48.84 133.87,52.24 C129.02,55.63 126.6,60.58 126.6,67.06 C126.6,72.77 128.45,77.28 132.17,80.6 C135.88,83.92 140.94,85.58 147.35,85.58 C151.1,85.58 154.46,84.92 157.43,83.59 C160.39,82.26 163.25,80.15 165.98,77.26 C165.98,77.26 165.98,83.94 165.98,83.94 C165.98,83.94 185.79,83.94 185.79,83.94 C185.79,83.94 185.79,45.73 185.79,45.73 C185.79,37.21 183.57,30.88 179.11,26.74 C174.66,22.6 167.78,20.53 158.48,20.53z M153.91,71.05 C149.3,71.05 146.99,69.17 146.99,65.42 C146.99,63.16 147.91,61.46 149.75,60.32 C151.58,59.19 154.5,58.51 158.48,58.27 C158.48,58.27 165.28,57.92 165.28,57.92 C165.28,57.92 165.28,60.03 165.28,60.03 C165.28,63.39 164.26,66.07 162.23,68.06 C160.2,70.05 157.43,71.05 153.91,71.05z M216.92,22.03 C223.83,22.03 228.92,24.36 232.48,29.16 C232.48,29.16 235.18,32.8 235.18,32.8 C235.18,32.8 235.18,28.26 235.18,28.26 C235.18,28.26 235.18,23.79 235.18,23.79 C235.18,23.79 252.82,23.79 252.82,23.79 C252.82,23.79 252.82,76.32 252.82,76.32 C252.82,86.57 250.36,94.24 245.51,99.12 C240.67,104 233.02,106.47 222.78,106.47 C206.11,106.47 197.1,100.35 195.28,87.79 C195.28,87.79 213.11,87.79 213.11,87.79 C213.91,90.92 216.37,94.11 223.02,94.11 C227.38,94.11 230.47,92.72 232.2,89.95 C233.81,87.38 234.6,83.04 234.6,76.67 C234.6,76.67 234.6,74.1 234.6,74.1 C234.6,74.1 234.6,70.04 234.6,70.04 C234.6,70.04 231.96,73.12 231.96,73.12 C228,77.73 222.7,79.98 215.75,79.98 C208.33,79.98 202.77,77.63 198.73,72.78 C194.69,67.93 192.64,60.91 192.64,51.94 C192.64,42.65 194.85,35.24 199.21,29.92 C203.56,24.61 209.35,22.03 216.92,22.03z M222.78,65.75 C226.44,65.75 229.47,64.35 231.8,61.56 C233.66,59.26 234.6,55.99 234.6,51.82 C234.6,51.82 234.6,50.3 234.6,50.3 C234.6,45.76 233.66,42.25 231.81,39.87 C229.72,37.24 226.73,35.91 222.9,35.91 C219.14,35.91 216.18,37.29 214.09,40.01 C212.1,42.61 211.09,46.27 211.09,50.89 C211.09,55.5 212.08,59.14 214.03,61.7 C216.08,64.39 219.02,65.75 222.78,65.75z M216.92,20.53 C208.95,20.53 202.66,23.34 198.05,28.97 C193.44,34.59 191.14,42.25 191.14,51.94 C191.14,61.32 193.28,68.59 197.58,73.74 C201.88,78.9 207.93,81.48 215.75,81.48 C223.09,81.48 228.88,79.02 233.1,74.1 C233.1,74.1 233.1,76.67 233.1,76.67 C233.1,82.69 232.38,86.85 230.93,89.16 C229.48,91.46 226.84,92.61 223.02,92.61 C217.78,92.61 214.89,90.51 214.34,86.29 C214.34,86.29 193.6,86.29 193.6,86.29 C194.92,100.74 204.65,107.97 222.78,107.97 C233.49,107.97 241.42,105.37 246.58,100.18 C251.74,94.98 254.32,87.03 254.32,76.32 C254.32,76.32 254.32,22.29 254.32,22.29 C254.32,22.29 233.68,22.29 233.68,22.29 C233.68,22.29 233.68,28.26 233.68,28.26 C229.85,23.11 224.27,20.53 216.92,20.53z M222.78,64.25 C219.5,64.25 216.98,63.1 215.22,60.79 C213.46,58.49 212.59,55.19 212.59,50.89 C212.59,46.59 213.48,43.27 215.28,40.92 C217.08,38.58 219.62,37.41 222.9,37.41 C226.26,37.41 228.84,38.54 230.64,40.81 C232.28,42.92 233.1,46.08 233.1,50.3 C233.1,50.3 233.1,51.82 233.1,51.82 C233.1,55.65 232.28,58.59 230.64,60.62 C228.6,63.04 225.99,64.25 222.78,64.25z M282.48,14.11 C282.48,14.11 264.03,14.11 264.03,14.11 C264.03,14.11 264.03,1.75 264.03,1.75 C264.03,1.75 282.48,1.75 282.48,1.75 C282.48,1.75 282.48,14.11 282.48,14.11z M282.36,82.44 C282.36,82.44 264.15,82.44 264.15,82.44 C264.15,82.44 264.15,23.9 264.15,23.9 C264.15,23.9 282.36,23.9 282.36,23.9 C282.36,23.9 282.36,82.44 282.36,82.44z M283.98,0.25 C283.98,0.25 262.53,0.25 262.53,0.25 C262.53,0.25 262.53,15.61 262.53,15.61 C262.53,15.61 283.98,15.61 283.98,15.61 C283.98,15.61 283.98,0.25 283.98,0.25z M283.86,22.4 C283.86,22.4 262.65,22.4 262.65,22.4 C262.65,22.4 262.65,83.94 262.65,83.94 C262.65,83.94 283.86,83.94 283.86,83.94 C283.86,83.94 283.86,22.4 283.86,22.4z M331.46,22.03 C337.56,22.03 342.04,23.74 345.17,27.27 C348.3,30.8 349.89,36.02 349.89,42.8 C349.89,42.8 349.89,82.44 349.89,82.44 C349.89,82.44 331.67,82.44 331.67,82.44 C331.67,82.44 331.67,46.2 331.67,46.2 C331.67,42.91 331.02,40.54 329.68,38.96 C328.29,37.32 326.13,36.49 323.26,36.49 C320.06,36.49 317.34,37.54 315.16,39.63 C313.01,41.79 311.91,44.71 311.91,48.31 C311.91,48.31 311.91,82.44 311.91,82.44 C311.91,82.44 293.7,82.44 293.7,82.44 C293.7,82.44 293.7,23.9 293.7,23.9 C293.7,23.9 311.33,23.9 311.33,23.9 C311.33,23.9 311.33,29.67 311.33,29.67 C311.33,29.67 311.33,34.14 311.33,34.14 C311.33,34.14 314.02,30.58 314.02,30.58 C318.37,24.83 324.08,22.03 331.46,22.03z M331.46,20.53 C323.65,20.53 317.44,23.58 312.83,29.67 C312.83,29.67 312.83,22.4 312.83,22.4 C312.83,22.4 292.2,22.4 292.2,22.4 C292.2,22.4 292.2,83.94 292.2,83.94 C292.2,83.94 313.41,83.94 313.41,83.94 C313.41,83.94 313.41,48.31 313.41,48.31 C313.41,45.11 314.35,42.57 316.23,40.69 C318.1,38.89 320.44,37.99 323.26,37.99 C325.68,37.99 327.44,38.64 328.53,39.93 C329.63,41.22 330.17,43.31 330.17,46.2 C330.17,46.2 330.17,83.94 330.17,83.94 C330.17,83.94 351.39,83.94 351.39,83.94 C351.39,83.94 351.39,42.8 351.39,42.8 C351.39,35.61 349.69,30.1 346.29,26.27 C342.89,22.44 337.95,20.53 331.46,20.53z M388.36,22.03 C397.19,22.03 404.14,24.61 409.02,29.71 C413.91,34.83 416.4,42.15 416.4,51.47 C416.4,51.47 416.4,56.66 416.4,56.66 C416.4,56.66 377.34,56.66 377.34,56.66 C377.34,56.66 375.73,56.66 375.73,56.66 C375.73,56.66 375.84,58.26 375.84,58.26 C376.18,63.01 377.25,66.39 379.12,68.61 C381.05,70.91 384,72.08 387.89,72.08 C394.63,72.08 397.5,68.79 398.71,65.63 C398.71,65.63 415.6,65.63 415.6,65.63 C414.24,71.53 411.45,76.08 407.28,79.16 C402.64,82.58 396.2,84.32 388.12,84.32 C378.43,84.32 370.98,81.75 365.98,76.68 C360.98,71.6 358.44,64.03 358.44,54.17 C358.44,44.06 361.11,36.09 366.36,30.46 C371.59,24.87 378.99,22.03 388.36,22.03z M375.66,47.58 C375.66,47.58 377.34,47.58 377.34,47.58 C377.34,47.58 398.32,47.58 398.32,47.58 C398.32,47.58 399.89,47.58 399.89,47.58 C399.89,47.58 399.82,46.02 399.82,46.02 C399.65,41.99 398.62,38.96 396.77,37.02 C394.88,35.04 392.05,34.03 388.36,34.03 C381.04,34.03 376.71,38.14 375.85,45.92 C375.85,45.92 375.66,47.58 375.66,47.58z M388.36,20.53 C378.51,20.53 370.81,23.5 365.27,29.44 C359.72,35.38 356.94,43.62 356.94,54.17 C356.94,64.48 359.6,72.34 364.91,77.73 C370.23,83.12 377.96,85.82 388.12,85.82 C396.56,85.82 403.24,84 408.17,80.37 C413.09,76.73 416.18,71.32 417.43,64.13 C417.43,64.13 397.62,64.13 397.62,64.13 C396.45,68.43 393.2,70.58 387.89,70.58 C384.45,70.58 381.91,69.6 380.27,67.65 C378.63,65.7 377.65,62.53 377.34,58.16 C377.34,58.16 417.9,58.16 417.9,58.16 C417.9,58.16 417.9,51.47 417.9,51.47 C417.9,41.71 415.3,34.11 410.1,28.68 C404.9,23.25 397.66,20.53 388.36,20.53z M377.34,46.08 C378.12,39.05 381.79,35.53 388.36,35.53 C391.64,35.53 394.08,36.37 395.68,38.05 C397.29,39.73 398.16,42.41 398.32,46.08 C398.32,46.08 377.34,46.08 377.34,46.08z M519.87,22.03 C525.72,22.03 530.01,23.7 532.98,27.14 C535.97,30.59 537.48,35.78 537.48,42.57 C537.48,42.57 537.48,82.44 537.48,82.44 C537.48,82.44 519.26,82.44 519.26,82.44 C519.26,82.44 519.26,44.91 519.26,44.91 C519.26,42.11 518.71,40.07 517.57,38.68 C516.38,37.23 514.47,36.49 511.9,36.49 C509,36.49 506.63,37.39 504.86,39.16 C503.02,41.01 502.08,43.53 502.08,46.67 C502.08,46.67 502.08,82.44 502.08,82.44 C502.08,82.44 483.86,82.44 483.86,82.44 C483.86,82.44 483.86,44.91 483.86,44.91 C483.86,42.11 483.31,40.07 482.17,38.68 C480.98,37.23 479.07,36.49 476.5,36.49 C473.6,36.49 471.23,37.39 469.46,39.16 C467.62,41.01 466.68,43.53 466.68,46.67 C466.68,46.67 466.68,82.44 466.68,82.44 C466.68,82.44 448.46,82.44 448.46,82.44 C448.46,82.44 448.46,23.9 448.46,23.9 C448.46,23.9 466.1,23.9 466.1,23.9 C466.1,23.9 466.1,29.55 466.1,29.55 C466.1,29.55 466.1,34.31 466.1,34.31 C466.1,34.31 468.82,30.42 468.82,30.42 C472.78,24.77 478.02,22.03 484.83,22.03 C488.36,22.03 491.44,22.79 493.97,24.28 C496.46,25.75 498.36,27.93 499.64,30.76 C499.64,30.76 500.67,33.05 500.67,33.05 C500.67,33.05 502.2,31.05 502.2,31.05 C504.54,27.97 507.19,25.67 510.06,24.21 C512.92,22.76 516.22,22.03 519.87,22.03z M519.87,20.53 C515.97,20.53 512.47,21.31 509.38,22.87 C506.29,24.44 503.5,26.86 501,30.14 C499.6,27.02 497.5,24.63 494.73,22.99 C491.96,21.35 488.65,20.53 484.83,20.53 C477.56,20.53 471.82,23.54 467.6,29.55 C467.6,29.55 467.6,22.4 467.6,22.4 C467.6,22.4 446.96,22.4 446.96,22.4 C446.96,22.4 446.96,83.94 446.96,83.94 C446.96,83.94 468.18,83.94 468.18,83.94 C468.18,83.94 468.18,46.67 468.18,46.67 C468.18,43.93 468.96,41.78 470.52,40.22 C472.01,38.74 474,37.99 476.5,37.99 C478.61,37.99 480.12,38.54 481.02,39.64 C481.91,40.73 482.36,42.49 482.36,44.91 C482.36,44.91 482.36,83.94 482.36,83.94 C482.36,83.94 503.58,83.94 503.58,83.94 C503.58,83.94 503.58,46.67 503.58,46.67 C503.58,43.93 504.36,41.78 505.92,40.22 C507.41,38.74 509.4,37.99 511.9,37.99 C514.01,37.99 515.52,38.54 516.42,39.64 C517.31,40.73 517.76,42.49 517.76,44.91 C517.76,44.91 517.76,83.94 517.76,83.94 C517.76,83.94 538.98,83.94 538.98,83.94 C538.98,83.94 538.98,42.57 538.98,42.57 C538.98,35.38 537.36,29.91 534.11,26.16 C530.87,22.4 526.13,20.53 519.87,20.53z M576.72,22.03 C586.26,22.03 593.74,24.75 598.97,30.13 C604.22,35.52 606.87,43.21 606.87,53 C606.87,62.86 604.18,70.63 598.86,76.1 C593.55,81.55 585.95,84.32 576.26,84.32 C566.72,84.32 559.23,81.61 554,76.27 C548.76,70.92 546.11,63.25 546.11,53.47 C546.11,43.53 548.82,35.72 554.18,30.25 C559.52,24.8 567.11,22.03 576.72,22.03z M576.49,70.56 C586.35,70.56 588.42,61.07 588.42,53.12 C588.42,45.21 586.35,35.79 576.49,35.79 C566.63,35.79 564.56,45.28 564.56,53.23 C564.56,61.14 566.63,70.56 576.49,70.56z M576.72,20.53 C566.64,20.53 558.77,23.42 553.1,29.2 C547.44,34.99 544.61,43.08 544.61,53.47 C544.61,63.7 547.38,71.66 552.93,77.32 C558.48,82.99 566.25,85.82 576.26,85.82 C586.41,85.82 594.31,82.93 599.93,77.14 C605.56,71.36 608.37,63.31 608.37,53 C608.37,42.76 605.6,34.79 600.05,29.09 C594.5,23.38 586.73,20.53 576.72,20.53z M576.49,69.06 C569.53,69.06 566.06,63.78 566.06,53.23 C566.06,42.61 569.53,37.29 576.49,37.29 C583.44,37.29 586.92,42.57 586.92,53.12 C586.92,63.74 583.44,69.06 576.49,69.06z M652.12,22.85 C653.65,22.85 655.09,22.95 656.43,23.15 C656.43,23.15 654.47,38.28 654.47,38.28 C652.99,38.02 651.25,37.9 649.19,37.9 C644.74,37.9 641.21,38.82 638.68,40.66 C635.56,42.98 633.97,46.93 633.97,52.41 C633.97,52.41 633.97,82.44 633.97,82.44 C633.97,82.44 615.76,82.44 615.76,82.44 C615.76,82.44 615.76,23.9 615.76,23.9 C615.76,23.9 633.39,23.9 633.39,23.9 C633.39,23.9 633.39,29.91 633.39,29.91 C633.39,29.91 633.39,34.5 633.39,34.5 C633.39,34.5 636.1,30.79 636.1,30.79 C638.06,28.11 640.36,26.09 642.94,24.8 C645.53,23.5 648.62,22.85 652.12,22.85z M652.12,21.35 C648.37,21.35 645.09,22.05 642.27,23.46 C639.46,24.86 637,27.02 634.89,29.91 C634.89,29.91 634.89,22.4 634.89,22.4 C634.89,22.4 614.26,22.4 614.26,22.4 C614.26,22.4 614.26,83.94 614.26,83.94 C614.26,83.94 635.47,83.94 635.47,83.94 C635.47,83.94 635.47,52.41 635.47,52.41 C635.47,47.41 636.84,43.89 639.58,41.86 C641.84,40.22 645.05,39.4 649.19,39.4 C651.92,39.4 654.11,39.64 655.75,40.1 C655.75,40.1 658.1,21.94 658.1,21.94 C656.3,21.55 654.31,21.35 652.12,21.35z M689.65,22.03 C698.48,22.03 705.43,24.61 710.31,29.71 C715.21,34.83 717.69,42.15 717.69,51.47 C717.69,51.47 717.69,56.66 717.69,56.66 C717.69,56.66 678.63,56.66 678.63,56.66 C678.63,56.66 677.02,56.66 677.02,56.66 C677.02,56.66 677.14,58.26 677.14,58.26 C677.47,63.01 678.55,66.39 680.41,68.61 C682.34,70.91 685.29,72.08 689.18,72.08 C695.92,72.08 698.79,68.79 700,65.63 C700,65.63 716.89,65.63 716.89,65.63 C715.54,71.53 712.74,76.08 708.57,79.16 C703.93,82.58 697.49,84.32 689.42,84.32 C679.72,84.32 672.27,81.75 667.28,76.68 C662.27,71.6 659.73,64.03 659.73,54.17 C659.73,44.06 662.4,36.09 667.65,30.46 C672.88,24.87 680.28,22.03 689.65,22.03z M676.96,47.58 C676.96,47.58 678.63,47.58 678.63,47.58 C678.63,47.58 699.61,47.58 699.61,47.58 C699.61,47.58 701.18,47.58 701.18,47.58 C701.18,47.58 701.11,46.02 701.11,46.02 C700.94,41.99 699.91,38.96 698.06,37.02 C696.17,35.04 693.34,34.03 689.65,34.03 C682.33,34.03 678,38.14 677.14,45.92 C677.14,45.92 676.96,47.58 676.96,47.58z M689.65,20.53 C679.8,20.53 672.11,23.5 666.56,29.44 C661.01,35.38 658.23,43.62 658.23,54.17 C658.23,64.48 660.89,72.34 666.21,77.73 C671.52,83.12 679.26,85.82 689.42,85.82 C697.86,85.82 704.54,84 709.46,80.37 C714.38,76.73 717.47,71.32 718.72,64.13 C718.72,64.13 698.91,64.13 698.91,64.13 C697.74,68.43 694.49,70.58 689.18,70.58 C685.74,70.58 683.2,69.6 681.56,67.65 C679.92,65.7 678.94,62.53 678.63,58.16 C678.63,58.16 719.19,58.16 719.19,58.16 C719.19,58.16 719.19,51.47 719.19,51.47 C719.19,41.71 716.59,34.11 711.39,28.68 C706.19,23.25 698.95,20.53 689.65,20.53z M678.63,46.08 C679.41,39.05 683.09,35.53 689.65,35.53 C692.93,35.53 695.37,36.37 696.98,38.05 C698.58,39.73 699.46,42.41 699.61,46.08 C699.61,46.08 678.63,46.08 678.63,46.08z"></path><g opacity="1" transform="matrix(1,0,0,1,0,0)"><path stroke-linecap="butt" stroke-linejoin="miter" fill-opacity="0" stroke-miterlimit="4" stroke="rgb(255,255,255)" stroke-opacity="1" stroke-width="17" d="M0 0"></path></g><g opacity="1" transform="matrix(1,0,0,1,10.97599983215332,42.09600067138672)"><path fill="rgb(255,255,255)" fill-opacity="1" d=" M-9.109000205993652,-18.191999435424805 C-9.109000205993652,-18.191999435424805 9.107999801635742,-18.191999435424805 9.107999801635742,-18.191999435424805 C9.107999801635742,-18.191999435424805 9.107999801635742,40.34600067138672 9.107999801635742,40.34600067138672 C9.107999801635742,40.34600067138672 -9.109000205993652,40.34600067138672 -9.109000205993652,40.34600067138672 C-9.109000205993652,40.34600067138672 -9.109000205993652,-18.191999435424805 -9.109000205993652,-18.191999435424805z M-10.609000205993652,-19.691999435424805 M-10.609000205993652,41.84600067138672 C-10.609000205993652,41.84600067138672 10.607999801635742,41.84600067138672 10.607999801635742,41.84600067138672 C10.607999801635742,41.84600067138672 10.607999801635742,-19.691999435424805 10.607999801635742,-19.691999435424805 C10.607999801635742,-19.691999435424805 -10.609000205993652,-19.691999435424805 -10.609000205993652,-19.691999435424805 C-10.609000205993652,-19.691999435424805 -10.609000205993652,41.84600067138672 -10.609000205993652,41.84600067138672z M-9.22599983215332,-40.34700012207031 C-9.22599983215332,-40.34700012207031 9.225000381469727,-40.34700012207031 9.225000381469727,-40.34700012207031 C9.225000381469727,-40.34700012207031 9.225000381469727,-27.990999221801758 9.225000381469727,-27.990999221801758 C9.225000381469727,-27.990999221801758 -9.22599983215332,-27.990999221801758 -9.22599983215332,-27.990999221801758 C-9.22599983215332,-27.990999221801758 -9.22599983215332,-40.34700012207031 -9.22599983215332,-40.34700012207031z M-10.72599983215332,-41.84600067138672 M-10.72599983215332,-26.489999771118164 C-10.72599983215332,-26.489999771118164 10.72599983215332,-26.489999771118164 10.72599983215332,-26.489999771118164 C10.72599983215332,-26.489999771118164 10.72599983215332,-41.84600067138672 10.72599983215332,-41.84600067138672 C10.72599983215332,-41.84600067138672 -10.72599983215332,-41.84600067138672 -10.72599983215332,-41.84600067138672 C-10.72599983215332,-41.84600067138672 -10.72599983215332,-26.489999771118164 -10.72599983215332,-26.489999771118164z"></path></g><g opacity="1" transform="matrix(1,0,0,1,75.92400360107422,52.236000061035156)"><path fill="rgb(255,255,255)" fill-opacity="1" d=" M26.902999877929688,-30.207000732421875 C32.750999450683594,-30.207000732421875 37.03799819946289,-28.53700065612793 40.007999420166016,-25.10099983215332 C42.994998931884766,-21.645000457763672 44.507999420166016,-16.454999923706055 44.507999420166016,-9.670000076293945 C44.507999420166016,-9.670000076293945 44.507999420166016,30.207000732421875 44.507999420166016,30.207000732421875 C44.507999420166016,30.207000732421875 26.29199981689453,30.207000732421875 26.29199981689453,30.207000732421875 C26.29199981689453,30.207000732421875 26.29199981689453,-7.326000213623047 26.29199981689453,-7.326000213623047 C26.29199981689453,-10.130000114440918 25.739999771118164,-12.166000366210938 24.601999282836914,-13.553999900817871 C23.409000396728516,-15.005999565124512 21.500999450683594,-15.741999626159668 18.930999755859375,-15.741999626159668 C16.030000686645508,-15.741999626159668 13.661999702453613,-14.845000267028809 11.892999649047852,-13.076000213623047 C10.045999526977539,-11.229999542236328 9.109000205993652,-8.704000473022461 9.109000205993652,-5.567999839782715 C9.109000205993652,-5.567999839782715 9.109000205993652,30.207000732421875 9.109000205993652,30.207000732421875 C9.109000205993652,30.207000732421875 -9.109000205993652,30.207000732421875 -9.109000205993652,30.207000732421875 C-9.109000205993652,30.207000732421875 -9.109000205993652,-7.326000213623047 -9.109000205993652,-7.326000213623047 C-9.109000205993652,-10.128999710083008 -9.66100025177002,-12.164999961853027 -10.79800033569336,-13.553999900817871 C-11.991999626159668,-15.005999565124512 -13.89900016784668,-15.741999626159668 -16.468000411987305,-15.741999626159668 C-19.3700008392334,-15.741999626159668 -21.739999771118164,-14.843999862670898 -23.506999969482422,-13.076000213623047 C-25.354999542236328,-11.229000091552734 -26.290000915527344,-8.704000473022461 -26.290000915527344,-5.567999839782715 C-26.290000915527344,-5.567999839782715 -26.290000915527344,30.207000732421875 -26.290000915527344,30.207000732421875 C-26.290000915527344,30.207000732421875 -44.507999420166016,30.207000732421875 -44.507999420166016,30.207000732421875 C-44.507999420166016,30.207000732421875 -44.507999420166016,-28.332000732421875 -44.507999420166016,-28.332000732421875 C-44.507999420166016,-28.332000732421875 -26.875999450683594,-28.332000732421875 -26.875999450683594,-28.332000732421875 C-26.875999450683594,-28.332000732421875 -26.875999450683594,-22.68199920654297 -26.875999450683594,-22.68199920654297 C-26.875999450683594,-22.68199920654297 -26.875999450683594,-17.93000030517578 -26.875999450683594,-17.93000030517578 C-26.875999450683594,-17.93000030517578 -24.14900016784668,-21.81999969482422 -24.14900016784668,-21.81999969482422 C-20.19099998474121,-27.464000701904297 -14.954999923706055,-30.207000732421875 -8.145999908447266,-30.207000732421875 C-4.607999801635742,-30.207000732421875 -1.5329999923706055,-29.448999404907227 0.9950000047683716,-27.95599937438965 C3.4830000400543213,-26.48200035095215 5.389999866485596,-24.30299949645996 6.663000106811523,-21.479000091552734 C6.663000106811523,-21.479000091552734 7.697000026702881,-19.183000564575195 7.697000026702881,-19.183000564575195 C7.697000026702881,-19.183000564575195 9.222999572753906,-21.187000274658203 9.222999572753906,-21.187000274658203 C11.571999549865723,-24.270000457763672 14.218000411987305,-26.570999145507812 17.089000701904297,-28.024999618530273 C19.950000762939453,-29.472999572753906 23.25200080871582,-30.207000732421875 26.902999877929688,-30.207000732421875z M26.902999877929688,-31.707000732421875 C22.993999481201172,-31.707000732421875 19.496999740600586,-30.924999237060547 16.410999298095703,-29.363000869750977 C13.322999954223633,-27.798999786376953 10.529999732971191,-25.378000259399414 8.029999732971191,-22.09600067138672 C6.623000144958496,-25.219999313354492 4.531000137329102,-27.604000091552734 1.7580000162124634,-29.246000289916992 C-1.0169999599456787,-30.886999130249023 -4.317999839782715,-31.707000732421875 -8.145999908447266,-31.707000732421875 C-15.411999702453613,-31.707000732421875 -21.156999588012695,-28.697999954223633 -25.375999450683594,-22.68199920654297 C-25.375999450683594,-22.68199920654297 -25.375999450683594,-29.832000732421875 -25.375999450683594,-29.832000732421875 C-25.375999450683594,-29.832000732421875 -46.007999420166016,-29.832000732421875 -46.007999420166016,-29.832000732421875 C-46.007999420166016,-29.832000732421875 -46.007999420166016,31.707000732421875 -46.007999420166016,31.707000732421875 C-46.007999420166016,31.707000732421875 -24.790000915527344,31.707000732421875 -24.790000915527344,31.707000732421875 C-24.790000915527344,31.707000732421875 -24.790000915527344,-5.567999839782715 -24.790000915527344,-5.567999839782715 C-24.790000915527344,-8.302000045776367 -24.01099967956543,-10.451000213623047 -22.44700050354004,-12.013999938964844 C-20.96299934387207,-13.49899959564209 -18.9689998626709,-14.241999626159668 -16.468000411987305,-14.241999626159668 C-14.357999801635742,-14.241999626159668 -12.854999542236328,-13.694000244140625 -11.956000328063965,-12.60099983215332 C-11.059000015258789,-11.505000114440918 -10.609000205993652,-9.748000144958496 -10.609000205993652,-7.326000213623047 C-10.609000205993652,-7.326000213623047 -10.609000205993652,31.707000732421875 -10.609000205993652,31.707000732421875 C-10.609000205993652,31.707000732421875 10.609000205993652,31.707000732421875 10.609000205993652,31.707000732421875 C10.609000205993652,31.707000732421875 10.609000205993652,-5.567999839782715 10.609000205993652,-5.567999839782715 C10.609000205993652,-8.302000045776367 11.38700008392334,-10.451000213623047 12.95199966430664,-12.013999938964844 C14.435999870300293,-13.49899959564209 16.429000854492188,-14.241999626159668 18.930999755859375,-14.241999626159668 C21.041000366210938,-14.241999626159668 22.545000076293945,-13.694000244140625 23.44300079345703,-12.60099983215332 C24.340999603271484,-11.505000114440918 24.79199981689453,-9.748000144958496 24.79199981689453,-7.326000213623047 C24.79199981689453,-7.326000213623047 24.79199981689453,31.707000732421875 24.79199981689453,31.707000732421875 C24.79199981689453,31.707000732421875 46.007999420166016,31.707000732421875 46.007999420166016,31.707000732421875 C46.007999420166016,31.707000732421875 46.007999420166016,-9.670000076293945 46.007999420166016,-9.670000076293945 C46.007999420166016,-16.858999252319336 44.3849983215332,-22.329999923706055 41.14400100708008,-26.08099937438965 C37.9010009765625,-29.832000732421875 33.15299987792969,-31.707000732421875 26.902999877929688,-31.707000732421875z"></path></g><g opacity="1" transform="matrix(1,0,0,1,156.19500732421875,53.055999755859375)"><path fill="rgb(255,255,255)" fill-opacity="1" d=" M2.2850000858306885,-31.027000427246094 C11.149999618530273,-31.027000427246094 17.746999740600586,-29.07200050354004 21.893999099731445,-25.216999053955078 C26.010000228881836,-21.38800048828125 28.097999572753906,-15.368000030517578 28.097999572753906,-7.324999809265137 C28.097999572753906,-7.324999809265137 28.097999572753906,29.386999130249023 28.097999572753906,29.386999130249023 C28.097999572753906,29.386999130249023 11.286999702453613,29.386999130249023 11.286999702453613,29.386999130249023 C11.286999702453613,29.386999130249023 11.286999702453613,24.204999923706055 11.286999702453613,24.204999923706055 C11.286999702453613,24.204999923706055 11.286999702453613,20.43600082397461 11.286999702453613,20.43600082397461 C11.286999702453613,20.43600082397461 8.697999954223633,23.174999237060547 8.697999954223633,23.174999237060547 C6.110000133514404,25.909000396728516 3.3919999599456787,27.924999237060547 0.6169999837875366,29.166000366210938 C-2.1440000534057617,30.400999069213867 -5.329999923706055,31.027000427246094 -8.850000381469727,31.027000427246094 C-14.850000381469727,31.027000427246094 -19.621000289916992,29.479999542236328 -23.030000686645508,26.42799949645996 C-26.43899917602539,23.378999710083008 -28.097000122070312,19.315000534057617 -28.097000122070312,14.008000373840332 C-28.097000122070312,7.984000205993652 -25.929000854492188,3.5360000133514404 -21.4689998626709,0.40700000524520874 C-16.881999969482422,-2.809999942779541 -9.654999732971191,-4.671000003814697 0.017000000923871994,-5.124000072479248 C0.017000000923871994,-5.124000072479248 9.277000427246094,-5.5929999351501465 9.277000427246094,-5.5929999351501465 C9.277000427246094,-5.5929999351501465 10.699999809265137,-5.664999961853027 10.699999809265137,-5.664999961853027 C10.699999809265137,-5.664999961853027 10.699999809265137,-7.091000080108643 10.699999809265137,-7.091000080108643 C10.699999809265137,-7.091000080108643 10.699999809265137,-9.553000450134277 10.699999809265137,-9.553000450134277 C10.699999809265137,-15.736000061035156 7.379000186920166,-19.141000747680664 1.3480000495910645,-19.141000747680664 C-4.776000022888184,-19.141000747680664 -7.218999862670898,-16.128999710083008 -8.135000228881836,-13.142999649047852 C-8.135000228881836,-13.142999649047852 -24.292999267578125,-14.432000160217285 -24.292999267578125,-14.432000160217285 C-21.808000564575195,-25.5939998626709 -13.095999717712402,-31.027000427246094 2.2850000858306885,-31.027000427246094z M-2.2860000133514404,19.493000030517578 C1.61899995803833,19.493000030517578 4.7729997634887695,18.343000411987305 7.086999893188477,16.075000762939453 C9.406999588012695,13.798999786376953 10.583000183105469,10.737000465393066 10.583000183105469,6.973999977111816 C10.583000183105469,6.973999977111816 10.583000183105469,4.864999771118164 10.583000183105469,4.864999771118164 C10.583000183105469,4.864999771118164 10.583000183105469,3.2850000858306885 10.583000183105469,3.2850000858306885 C10.583000183105469,3.2850000858306885 9.005999565124512,3.367000102996826 9.005999565124512,3.367000102996826 C9.005999565124512,3.367000102996826 2.197000026702881,3.7200000286102295 2.197000026702881,3.7200000286102295 C-2.0789999961853027,3.9709999561309814 -5.164000034332275,4.714000225067139 -7.235000133514404,5.991000175476074 C-9.503000259399414,7.389999866485596 -10.70199966430664,9.595999717712402 -10.70199966430664,12.366999626159668 C-10.70199966430664,15.027999877929688 -9.607999801635742,19.493000030517578 -2.2860000133514404,19.493000030517578z M2.2850000858306885,-32.527000427246094 C-14.515999794006348,-32.527000427246094 -23.972000122070312,-26.040000915527344 -26.08099937438965,-13.069000244140625 C-26.08099937438965,-13.069000244140625 -6.973999977111816,-11.545000076293945 -6.973999977111816,-11.545000076293945 C-6.270999908447266,-15.607999801635742 -3.499000072479248,-17.641000747680664 1.3480000495910645,-17.641000747680664 C6.581999778747559,-17.641000747680664 9.199999809265137,-14.944999694824219 9.199999809265137,-9.553000450134277 C9.199999809265137,-9.553000450134277 9.199999809265137,-7.091000080108643 9.199999809265137,-7.091000080108643 C9.199999809265137,-7.091000080108643 -0.05900000035762787,-6.622000217437744 -0.05900000035762787,-6.622000217437744 C-10.062000274658203,-6.1529998779296875 -17.485000610351562,-4.218999862670898 -22.329999923706055,-0.8199999928474426 C-27.177000045776367,2.5789999961853027 -29.597000122070312,7.521999835968018 -29.597000122070312,14.008000373840332 C-29.597000122070312,19.71299934387207 -27.742000579833984,24.225000381469727 -24.030000686645508,27.54599952697754 C-20.319000244140625,30.868000030517578 -15.258999824523926,32.527000427246094 -8.850000381469727,32.527000427246094 C-5.098999977111816,32.527000427246094 -1.7400000095367432,31.863000869750977 1.2300000190734863,30.53499984741211 C4.198999881744385,29.207000732421875 7.051000118255615,27.097000122070312 9.786999702453613,24.204999923706055 C9.786999702453613,24.204999923706055 9.786999702453613,30.886999130249023 9.786999702453613,30.886999130249023 C9.786999702453613,30.886999130249023 29.597999572753906,30.886999130249023 29.597999572753906,30.886999130249023 C29.597999572753906,30.886999130249023 29.597999572753906,-7.324999809265137 29.597999572753906,-7.324999809265137 C29.597999572753906,-15.842000007629395 27.3700008392334,-22.172000885009766 22.916000366210938,-26.315000534057617 C18.461999893188477,-30.45599937438965 11.583000183105469,-32.527000427246094 2.2850000858306885,-32.527000427246094z M-2.2860000133514404,17.993000030517578 C-6.896999835968018,17.993000030517578 -9.20199966430664,16.117000579833984 -9.20199966430664,12.366999626159668 C-9.20199966430664,10.10099983215332 -8.284000396728516,8.401000022888184 -6.447000026702881,7.267000198364258 C-4.611999988555908,6.136000156402588 -1.7000000476837158,5.451000213623047 2.2850000858306885,5.2170000076293945 C2.2850000858306885,5.2170000076293945 9.083000183105469,4.864999771118164 9.083000183105469,4.864999771118164 C9.083000183105469,4.864999771118164 9.083000183105469,6.973999977111816 9.083000183105469,6.973999977111816 C9.083000183105469,10.336000442504883 8.067999839782715,13.01200008392334 6.035999774932861,15.003999710083008 C4.002999782562256,16.996999740600586 1.2300000190734863,17.993000030517578 -2.2860000133514404,17.993000030517578z"></path></g><g opacity="1" transform="matrix(1,0,0,1,222.7259979248047,64.25)"><path fill="rgb(255,255,255)" fill-opacity="1" d=" M-5.802000045776367,-42.22200012207031 C1.1039999723434448,-42.22200012207031 6.192999839782715,-39.88999938964844 9.755000114440918,-35.09199905395508 C9.755000114440918,-35.09199905395508 12.458000183105469,-31.448999404907227 12.458000183105469,-31.448999404907227 C12.458000183105469,-31.448999404907227 12.458000183105469,-35.986000061035156 12.458000183105469,-35.986000061035156 C12.458000183105469,-35.986000061035156 12.458000183105469,-40.4640007019043 12.458000183105469,-40.4640007019043 C12.458000183105469,-40.4640007019043 30.09000015258789,-40.4640007019043 30.09000015258789,-40.4640007019043 C30.09000015258789,-40.4640007019043 30.09000015258789,12.071999549865723 30.09000015258789,12.071999549865723 C30.09000015258789,22.31599998474121 27.632999420166016,29.986000061035156 22.788000106811523,34.86899948120117 C17.947999954223633,39.74800109863281 10.298999786376953,42.22200012207031 0.057999998331069946,42.22200012207031 C-16.61199951171875,42.22200012207031 -25.62700080871582,36.104000091552734 -27.441999435424805,23.535999298095703 C-27.441999435424805,23.535999298095703 -9.619999885559082,23.535999298095703 -9.619999885559082,23.535999298095703 C-8.812000274658203,26.672000885009766 -6.35699987411499,29.864999771118164 0.2919999957084656,29.864999771118164 C4.6529998779296875,29.864999771118164 7.743000030517578,28.465999603271484 9.47599983215332,25.70400047302246 C11.08899974822998,23.1299991607666 11.871999740600586,18.785999298095703 11.871999740600586,12.423999786376953 C11.871999740600586,12.423999786376953 11.871999740600586,9.845999717712402 11.871999740600586,9.845999717712402 C11.871999740600586,9.845999717712402 11.871999740600586,5.791999816894531 11.871999740600586,5.791999816894531 C11.871999740600586,5.791999816894531 9.234000205993652,8.869000434875488 9.234000205993652,8.869000434875488 C5.2769999504089355,13.484999656677246 -0.026000000536441803,15.729000091552734 -6.974999904632568,15.729000091552734 C-14.390999794006348,15.729000091552734 -19.95800018310547,13.37600040435791 -23.992000579833984,8.534000396728516 C-28.038999557495117,3.677000045776367 -30.089000701904297,-3.3350000381469727 -30.089000701904297,-12.309000015258789 C-30.089000701904297,-21.600000381469727 -27.878000259399414,-29.009000778198242 -23.51300048828125,-34.332000732421875 C-19.163999557495117,-39.641998291015625 -13.371000289916992,-42.22200012207031 -5.802000045776367,-42.22200012207031z M0.057999998331069946,1.4989999532699585 C3.7119998931884766,1.4989999532699585 6.742000102996826,0.09600000083446503 9.079000473022461,-2.690999984741211 C10.932999610900879,-4.986000061035156 11.871999740600586,-8.26099967956543 11.871999740600586,-12.425999641418457 C11.871999740600586,-12.425999641418457 11.871999740600586,-13.949000358581543 11.871999740600586,-13.949000358581543 C11.871999740600586,-18.492000579833984 10.939000129699707,-21.996000289916992 9.086999893188477,-24.375999450683594 C6.998000144958496,-27.009000778198242 4,-28.343000411987305 0.17599999904632568,-28.343000411987305 C-3.5840001106262207,-28.343000411987305 -6.546999931335449,-26.961999893188477 -8.631999969482422,-24.239999771118164 C-10.628000259399414,-21.641000747680664 -11.638999938964844,-17.981000900268555 -11.638999938964844,-13.36299991607666 C-11.638999938964844,-8.746999740600586 -10.64799976348877,-5.107999801635742 -8.694999694824219,-2.549999952316284 C-6.646999835968018,0.13699999451637268 -3.703000068664551,1.4989999532699585 0.057999998331069946,1.4989999532699585z M-5.802000045776367,-43.72200012207031 C-13.77299976348877,-43.72200012207031 -20.06399917602539,-40.90999984741211 -24.67300033569336,-35.28300094604492 C-29.285999298095703,-29.6560001373291 -31.589000701904297,-21.996999740600586 -31.589000701904297,-12.309000015258789 C-31.589000701904297,-2.930999994277954 -29.44099998474121,4.335999965667725 -25.14299964904785,9.494000434875488 C-20.84600067138672,14.651000022888184 -14.791000366210938,17.229000091552734 -6.974999904632568,17.229000091552734 C0.36899998784065247,17.229000091552734 6.1519999504089355,14.769000053405762 10.371999740600586,9.845999717712402 C10.371999740600586,9.845999717712402 10.371999740600586,12.423999786376953 10.371999740600586,12.423999786376953 C10.371999740600586,18.441999435424805 9.649999618530273,22.601999282836914 8.204000473022461,24.906999588012695 C6.757999897003174,27.211999893188477 4.11899995803833,28.364999771118164 0.2919999957084656,28.364999771118164 C-4.943999767303467,28.364999771118164 -7.836999893188477,26.256000518798828 -8.381999969482422,22.035999298095703 C-8.381999969482422,22.035999298095703 -29.1299991607666,22.035999298095703 -29.1299991607666,22.035999298095703 C-27.801000595092773,36.49100112915039 -18.07200050354004,43.72200012207031 0.057999998331069946,43.72200012207031 C10.762999534606934,43.72200012207031 18.69700050354004,41.12300109863281 23.854000091552734,35.92599868774414 C29.01099967956543,30.72800064086914 31.59000015258789,22.777000427246094 31.59000015258789,12.071999549865723 C31.59000015258789,12.071999549865723 31.59000015258789,-41.9640007019043 31.59000015258789,-41.9640007019043 C31.59000015258789,-41.9640007019043 10.958000183105469,-41.9640007019043 10.958000183105469,-41.9640007019043 C10.958000183105469,-41.9640007019043 10.958000183105469,-35.986000061035156 10.958000183105469,-35.986000061035156 C7.127999782562256,-41.14400100708008 1.5410000085830688,-43.72200012207031 -5.802000045776367,-43.72200012207031z M0.057999998331069946,-0.0010000000474974513 C-3.2239999771118164,-0.0010000000474974513 -5.744999885559082,-1.1519999504089355 -7.502999782562256,-3.4590001106262207 C-9.26099967956543,-5.763000011444092 -10.138999938964844,-9.064000129699707 -10.138999938964844,-13.36299991607666 C-10.138999938964844,-17.65999984741211 -9.241999626159668,-20.98200035095215 -7.442999839782715,-23.326000213623047 C-5.646999835968018,-25.67099952697754 -3.1070001125335693,-26.843000411987305 0.17599999904632568,-26.843000411987305 C3.5350000858306885,-26.843000411987305 6.11299991607666,-25.708999633789062 7.910999774932861,-23.44300079345703 C9.552000045776367,-21.333999633789062 10.371999740600586,-18.16900062561035 10.371999740600586,-13.949000358581543 C10.371999740600586,-13.949000358581543 10.371999740600586,-12.425999641418457 10.371999740600586,-12.425999641418457 C10.371999740600586,-8.595999717712402 9.552000045776367,-5.664999961853027 7.910999774932861,-3.634999990463257 C5.877999782562256,-1.2109999656677246 3.26200008392334,-0.0010000000474974513 0.057999998331069946,-0.0010000000474974513z"></path></g><g opacity="1" transform="matrix(1,0,0,1,273.2550048828125,42.09700012207031)"><path fill="rgb(255,255,255)" fill-opacity="1" d=" M9.225000381469727,-27.989999771118164 C9.225000381469727,-27.989999771118164 -9.223999977111816,-27.989999771118164 -9.223999977111816,-27.989999771118164 C-9.223999977111816,-27.989999771118164 -9.223999977111816,-40.34600067138672 -9.223999977111816,-40.34600067138672 C-9.223999977111816,-40.34600067138672 9.225000381469727,-40.34600067138672 9.225000381469727,-40.34600067138672 C9.225000381469727,-40.34600067138672 9.225000381469727,-27.989999771118164 9.225000381469727,-27.989999771118164z M9.107999801635742,40.34600067138672 C9.107999801635742,40.34600067138672 -9.107000350952148,40.34600067138672 -9.107000350952148,40.34600067138672 C-9.107000350952148,40.34600067138672 -9.107000350952148,-18.19300079345703 -9.107000350952148,-18.19300079345703 C-9.107000350952148,-18.19300079345703 9.107999801635742,-18.19300079345703 9.107999801635742,-18.19300079345703 C9.107999801635742,-18.19300079345703 9.107999801635742,40.34600067138672 9.107999801635742,40.34600067138672z M10.725000381469727,-41.84600067138672 C10.725000381469727,-41.84600067138672 -10.723999977111816,-41.84600067138672 -10.723999977111816,-41.84600067138672 C-10.723999977111816,-41.84600067138672 -10.723999977111816,-26.489999771118164 -10.723999977111816,-26.489999771118164 C-10.723999977111816,-26.489999771118164 10.725000381469727,-26.489999771118164 10.725000381469727,-26.489999771118164 C10.725000381469727,-26.489999771118164 10.725000381469727,-41.84600067138672 10.725000381469727,-41.84600067138672z M10.607999801635742,-19.69300079345703 C10.607999801635742,-19.69300079345703 -10.607000350952148,-19.69300079345703 -10.607000350952148,-19.69300079345703 C-10.607000350952148,-19.69300079345703 -10.607000350952148,41.84600067138672 -10.607000350952148,41.84600067138672 C-10.607000350952148,41.84600067138672 10.607999801635742,41.84600067138672 10.607999801635742,41.84600067138672 C10.607999801635742,41.84600067138672 10.607999801635742,-19.69300079345703 10.607999801635742,-19.69300079345703z"></path></g><g opacity="1" transform="matrix(1,0,0,1,321.7929992675781,52.236000061035156)"><path fill="rgb(255,255,255)" fill-opacity="1" d=" M9.670999526977539,-30.207000732421875 C15.763999938964844,-30.207000732421875 20.246999740600586,-28.493000030517578 23.37700080871582,-24.968000411987305 C26.510000228881836,-21.437999725341797 28.097999572753906,-16.211999893188477 28.097999572753906,-9.435999870300293 C28.097999572753906,-9.435999870300293 28.097999572753906,30.207000732421875 28.097999572753906,30.207000732421875 C28.097999572753906,30.207000732421875 9.881999969482422,30.207000732421875 9.881999969482422,30.207000732421875 C9.881999969482422,30.207000732421875 9.881999969482422,-6.0370001792907715 9.881999969482422,-6.0370001792907715 C9.881999969482422,-9.324999809265137 9.229000091552734,-11.692999839782715 7.883999824523926,-13.279999732971191 C6.494999885559082,-14.913999557495117 4.335999965667725,-15.741999626159668 1.465999960899353,-15.741999626159668 C-1.7330000400543213,-15.741999626159668 -4.448999881744385,-14.694999694824219 -6.629000186920166,-12.605999946594238 C-8.78600025177002,-10.449000358581543 -9.880000114440918,-7.5289998054504395 -9.880000114440918,-3.927000045776367 C-9.880000114440918,-3.927000045776367 -9.880000114440918,30.207000732421875 -9.880000114440918,30.207000732421875 C-9.880000114440918,30.207000732421875 -28.097000122070312,30.207000732421875 -28.097000122070312,30.207000732421875 C-28.097000122070312,30.207000732421875 -28.097000122070312,-28.332000732421875 -28.097000122070312,-28.332000732421875 C-28.097000122070312,-28.332000732421875 -10.465999603271484,-28.332000732421875 -10.465999603271484,-28.332000732421875 C-10.465999603271484,-28.332000732421875 -10.465999603271484,-22.56399917602539 -10.465999603271484,-22.56399917602539 C-10.465999603271484,-22.56399917602539 -10.465999603271484,-18.0939998626709 -10.465999603271484,-18.0939998626709 C-10.465999603271484,-18.0939998626709 -7.769000053405762,-21.65999984741211 -7.769000053405762,-21.65999984741211 C-3.4200000762939453,-27.410999298095703 2.2850000858306885,-30.207000732421875 9.670999526977539,-30.207000732421875z M9.670999526977539,-31.707000732421875 C1.8559999465942383,-31.707000732421875 -4.355999946594238,-28.659000396728516 -8.965999603271484,-22.56399917602539 C-8.965999603271484,-22.56399917602539 -8.965999603271484,-29.832000732421875 -8.965999603271484,-29.832000732421875 C-8.965999603271484,-29.832000732421875 -29.597000122070312,-29.832000732421875 -29.597000122070312,-29.832000732421875 C-29.597000122070312,-29.832000732421875 -29.597000122070312,31.707000732421875 -29.597000122070312,31.707000732421875 C-29.597000122070312,31.707000732421875 -8.380000114440918,31.707000732421875 -8.380000114440918,31.707000732421875 C-8.380000114440918,31.707000732421875 -8.380000114440918,-3.927000045776367 -8.380000114440918,-3.927000045776367 C-8.380000114440918,-7.130000114440918 -7.441999912261963,-9.670000076293945 -5.566999912261963,-11.545000076293945 C-3.690999984741211,-13.342000007629395 -1.3480000495910645,-14.241999626159668 1.465999960899353,-14.241999626159668 C3.88700008392334,-14.241999626159668 5.645999908447266,-13.597000122070312 6.739999771118164,-12.307999610900879 C7.834000110626221,-11.017999649047852 8.381999969482422,-8.927000045776367 8.381999969482422,-6.0370001792907715 C8.381999969482422,-6.0370001792907715 8.381999969482422,31.707000732421875 8.381999969482422,31.707000732421875 C8.381999969482422,31.707000732421875 29.597999572753906,31.707000732421875 29.597999572753906,31.707000732421875 C29.597999572753906,31.707000732421875 29.597999572753906,-9.435999870300293 29.597999572753906,-9.435999870300293 C29.597999572753906,-16.624000549316406 27.898000717163086,-22.134000778198242 24.499000549316406,-25.964000701904297 C21.100000381469727,-29.79199981689453 16.1560001373291,-31.707000732421875 9.670999526977539,-31.707000732421875z"></path></g><g opacity="1" transform="matrix(1,0,0,1,387.4209899902344,53.17300033569336)"><path fill="rgb(255,255,255)" fill-opacity="1" d=" M0.9390000104904175,-31.143999099731445 C9.767000198364258,-31.143999099731445 16.718000411987305,-28.55900001525879 21.597999572753906,-23.461000442504883 C26.493999481201172,-18.343000411987305 28.976999282836914,-11.020999908447266 28.976999282836914,-1.6990000009536743 C28.976999282836914,-1.6990000009536743 28.976999282836914,3.4820001125335693 28.976999282836914,3.4820001125335693 C28.976999282836914,3.4820001125335693 -10.081000328063965,3.4820001125335693 -10.081000328063965,3.4820001125335693 C-10.081000328063965,3.4820001125335693 -11.690999984741211,3.4820001125335693 -11.690999984741211,3.4820001125335693 C-11.690999984741211,3.4820001125335693 -11.57699966430664,5.089000225067139 -11.57699966430664,5.089000225067139 C-11.23900032043457,9.833000183105469 -10.166999816894531,13.220000267028809 -8.298999786376953,15.440999984741211 C-6.367000102996826,17.740999221801758 -3.4170000553131104,18.906999588012695 0.4699999988079071,18.906999588012695 C7.210999965667725,18.906999588012695 10.083000183105469,15.619999885559082 11.28600025177002,12.460000038146973 C11.28600025177002,12.460000038146973 28.177000045776367,12.460000038146973 28.177000045776367,12.460000038146973 C26.823999404907227,18.36199951171875 24.030000686645508,22.906999588012695 19.856000900268555,25.98699951171875 C15.220999717712402,29.40999984741211 8.776000022888184,31.143999099731445 0.7039999961853027,31.143999099731445 C-8.991999626159668,31.143999099731445 -16.44099998474121,28.573999404907227 -21.437000274658203,23.5049991607666 C-26.43899917602539,18.429000854492188 -28.976999282836914,10.855999946594238 -28.976999282836914,0.996999979019165 C-28.976999282836914,-9.112000465393066 -26.312000274658203,-17.08799934387207 -21.058000564575195,-22.711999893188477 C-15.829999923706055,-28.30699920654297 -8.430000305175781,-31.143999099731445 0.9390000104904175,-31.143999099731445z M-11.755999565124512,-5.591000080108643 C-11.755999565124512,-5.591000080108643 -10.081000328063965,-5.591000080108643 -10.081000328063965,-5.591000080108643 C-10.081000328063965,-5.591000080108643 10.901000022888184,-5.591000080108643 10.901000022888184,-5.591000080108643 C10.901000022888184,-5.591000080108643 12.467000007629395,-5.591000080108643 12.467000007629395,-5.591000080108643 C12.467000007629395,-5.591000080108643 12.39900016784668,-7.15500020980835 12.39900016784668,-7.15500020980835 C12.227999687194824,-11.182999610900879 11.201000213623047,-14.211000442504883 9.348999977111816,-16.1560001373291 C7.459000110626221,-18.136999130249023 4.629000186920166,-19.141000747680664 0.9390000104904175,-19.141000747680664 C-6.382999897003174,-19.141000747680664 -10.708999633789062,-15.031000137329102 -11.571000099182129,-7.256999969482422 C-11.571000099182129,-7.256999969482422 -11.755999565124512,-5.591000080108643 -11.755999565124512,-5.591000080108643z M0.9390000104904175,-32.64400100708008 C-8.909000396728516,-32.64400100708008 -16.606000900268555,-29.673999786376953 -22.15399932861328,-23.736000061035156 C-27.702999114990234,-17.79599952697754 -30.476999282836914,-9.553000450134277 -30.476999282836914,0.996999979019165 C-30.476999282836914,11.310999870300293 -27.81999969482422,19.165000915527344 -22.506000518798828,24.55699920654297 C-17.191999435424805,29.948999404907227 -9.456000328063965,32.64400100708008 0.7039999961853027,32.64400100708008 C9.144000053405762,32.64400100708008 15.824000358581543,30.827999114990234 20.746999740600586,27.194000244140625 C25.67099952697754,23.559999465942383 28.756999969482422,18.149999618530273 30.007999420166016,10.960000038146973 C30.007999420166016,10.960000038146973 10.197999954223633,10.960000038146973 10.197999954223633,10.960000038146973 C9.026000022888184,15.258999824523926 5.7820000648498535,17.406999588012695 0.4699999988079071,17.406999588012695 C-2.9709999561309814,17.406999588012695 -5.508999824523926,16.43000030517578 -7.150000095367432,14.47599983215332 C-8.791999816894531,12.52400016784668 -9.769000053405762,9.359000205993652 -10.081000328063965,4.98199987411499 C-10.081000328063965,4.98199987411499 30.476999282836914,4.98199987411499 30.476999282836914,4.98199987411499 C30.476999282836914,4.98199987411499 30.476999282836914,-1.6990000009536743 30.476999282836914,-1.6990000009536743 C30.476999282836914,-11.467000007629395 27.878000259399414,-19.06599998474121 22.68199920654297,-24.49799919128418 C17.482999801635742,-29.92799949645996 10.236000061035156,-32.64400100708008 0.9390000104904175,-32.64400100708008z M-10.081000328063965,-7.091000080108643 C-9.300999641418457,-14.12399959564209 -5.625999927520752,-17.641000747680664 0.9390000104904175,-17.641000747680664 C4.21999979019165,-17.641000747680664 6.660999774932861,-16.799999237060547 8.263999938964844,-15.119999885559082 C9.864999771118164,-13.439000129699707 10.744000434875488,-10.762999534606934 10.901000022888184,-7.091000080108643 C10.901000022888184,-7.091000080108643 -10.081000328063965,-7.091000080108643 -10.081000328063965,-7.091000080108643z"></path></g><g opacity="1" transform="matrix(1,0,0,1,492.9729919433594,52.236000061035156)"><path fill="rgb(255,255,255)" fill-opacity="1" d=" M26.900999069213867,-30.207000732421875 C32.75,-30.207000732421875 37.0369987487793,-28.53700065612793 40.007999420166016,-25.100000381469727 C42.99399948120117,-21.645000457763672 44.507999420166016,-16.454999923706055 44.507999420166016,-9.670000076293945 C44.507999420166016,-9.670000076293945 44.507999420166016,30.207000732421875 44.507999420166016,30.207000732421875 C44.507999420166016,30.207000732421875 26.29199981689453,30.207000732421875 26.29199981689453,30.207000732421875 C26.29199981689453,30.207000732421875 26.29199981689453,-7.326000213623047 26.29199981689453,-7.326000213623047 C26.29199981689453,-10.128000259399414 25.73900032043457,-12.164999961853027 24.600000381469727,-13.555000305175781 C23.4060001373291,-15.005999565124512 21.499000549316406,-15.741999626159668 18.93000030517578,-15.741999626159668 C16.02899932861328,-15.741999626159668 13.65999984741211,-14.843999862670898 11.892000198364258,-13.076000213623047 C10.043999671936035,-11.229000091552734 9.107999801635742,-8.70300006866455 9.107999801635742,-5.567999839782715 C9.107999801635742,-5.567999839782715 9.107999801635742,30.207000732421875 9.107999801635742,30.207000732421875 C9.107999801635742,30.207000732421875 -9.107999801635742,30.207000732421875 -9.107999801635742,30.207000732421875 C-9.107999801635742,30.207000732421875 -9.107999801635742,-7.326000213623047 -9.107999801635742,-7.326000213623047 C-9.107999801635742,-10.128999710083008 -9.66100025177002,-12.164999961853027 -10.79800033569336,-13.555000305175781 C-11.993000030517578,-15.005999565124512 -13.901000022888184,-15.741999626159668 -16.4689998626709,-15.741999626159668 C-19.371000289916992,-15.741999626159668 -21.740999221801758,-14.843999862670898 -23.507999420166016,-13.074999809265137 C-25.354999542236328,-11.227999687194824 -26.290000915527344,-8.70300006866455 -26.290000915527344,-5.567999839782715 C-26.290000915527344,-5.567999839782715 -26.290000915527344,30.207000732421875 -26.290000915527344,30.207000732421875 C-26.290000915527344,30.207000732421875 -44.507999420166016,30.207000732421875 -44.507999420166016,30.207000732421875 C-44.507999420166016,30.207000732421875 -44.507999420166016,-28.332000732421875 -44.507999420166016,-28.332000732421875 C-44.507999420166016,-28.332000732421875 -26.875999450683594,-28.332000732421875 -26.875999450683594,-28.332000732421875 C-26.875999450683594,-28.332000732421875 -26.875999450683594,-22.68199920654297 -26.875999450683594,-22.68199920654297 C-26.875999450683594,-22.68199920654297 -26.875999450683594,-17.930999755859375 -26.875999450683594,-17.930999755859375 C-26.875999450683594,-17.930999755859375 -24.149999618530273,-21.81999969482422 -24.149999618530273,-21.81999969482422 C-20.191999435424805,-27.464000701904297 -14.956999778747559,-30.207000732421875 -8.147000312805176,-30.207000732421875 C-4.609000205993652,-30.207000732421875 -1.531999945640564,-29.448999404907227 0.9950000047683716,-27.95599937438965 C3.4839999675750732,-26.481000900268555 5.390999794006348,-24.30299949645996 6.663000106811523,-21.479000091552734 C6.663000106811523,-21.479000091552734 7.697000026702881,-19.183000564575195 7.697000026702881,-19.183000564575195 C7.697000026702881,-19.183000564575195 9.222999572753906,-21.187000274658203 9.222999572753906,-21.187000274658203 C11.571999549865723,-24.270000457763672 14.218000411987305,-26.570999145507812 17.089000701904297,-28.024999618530273 C19.950000762939453,-29.472999572753906 23.25200080871582,-30.207000732421875 26.900999069213867,-30.207000732421875z M26.900999069213867,-31.707000732421875 C22.993000030517578,-31.707000732421875 19.496000289916992,-30.924999237060547 16.40999984741211,-29.363000869750977 C13.321999549865723,-27.798999786376953 10.529999732971191,-25.378000259399414 8.029999732971191,-22.09600067138672 C6.623000144958496,-25.219999313354492 4.531000137329102,-27.604000091552734 1.7580000162124634,-29.246000289916992 C-1.0160000324249268,-30.886999130249023 -4.320000171661377,-31.707000732421875 -8.147000312805176,-31.707000732421875 C-15.413999557495117,-31.707000732421875 -21.156999588012695,-28.697999954223633 -25.375999450683594,-22.68199920654297 C-25.375999450683594,-22.68199920654297 -25.375999450683594,-29.832000732421875 -25.375999450683594,-29.832000732421875 C-25.375999450683594,-29.832000732421875 -46.007999420166016,-29.832000732421875 -46.007999420166016,-29.832000732421875 C-46.007999420166016,-29.832000732421875 -46.007999420166016,31.707000732421875 -46.007999420166016,31.707000732421875 C-46.007999420166016,31.707000732421875 -24.790000915527344,31.707000732421875 -24.790000915527344,31.707000732421875 C-24.790000915527344,31.707000732421875 -24.790000915527344,-5.567999839782715 -24.790000915527344,-5.567999839782715 C-24.790000915527344,-8.302000045776367 -24.01099967956543,-10.451000213623047 -22.447999954223633,-12.013999938964844 C-20.964000701904297,-13.49899959564209 -18.97100067138672,-14.241999626159668 -16.4689998626709,-14.241999626159668 C-14.359999656677246,-14.241999626159668 -12.855999946594238,-13.694000244140625 -11.956000328063965,-12.60099983215332 C-11.059000015258789,-11.505000114440918 -10.607999801635742,-9.748000144958496 -10.607999801635742,-7.326000213623047 C-10.607999801635742,-7.326000213623047 -10.607999801635742,31.707000732421875 -10.607999801635742,31.707000732421875 C-10.607999801635742,31.707000732421875 10.607999801635742,31.707000732421875 10.607999801635742,31.707000732421875 C10.607999801635742,31.707000732421875 10.607999801635742,-5.567999839782715 10.607999801635742,-5.567999839782715 C10.607999801635742,-8.302000045776367 11.38700008392334,-10.451000213623047 12.95199966430664,-12.013999938964844 C14.4350004196167,-13.49899959564209 16.42799949645996,-14.241999626159668 18.93000030517578,-14.241999626159668 C21.041000366210938,-14.241999626159668 22.54400062561035,-13.694000244140625 23.44300079345703,-12.60099983215332 C24.34000015258789,-11.505000114440918 24.79199981689453,-9.748000144958496 24.79199981689453,-7.326000213623047 C24.79199981689453,-7.326000213623047 24.79199981689453,31.707000732421875 24.79199981689453,31.707000732421875 C24.79199981689453,31.707000732421875 46.007999420166016,31.707000732421875 46.007999420166016,31.707000732421875 C46.007999420166016,31.707000732421875 46.007999420166016,-9.670000076293945 46.007999420166016,-9.670000076293945 C46.007999420166016,-16.858999252319336 44.38399887084961,-22.329999923706055 41.141998291015625,-26.08099937438965 C37.89899826049805,-29.832000732421875 33.15299987792969,-31.707000732421875 26.900999069213867,-31.707000732421875z"></path></g><g opacity="1" transform="matrix(1,0,0,1,576.489990234375,53.17300033569336)"><path fill="rgb(255,255,255)" fill-opacity="1" d=" M0.23399999737739563,-31.145000457763672 C9.767999649047852,-31.145000457763672 17.253999710083008,-28.41900062561035 22.483999252319336,-23.04199981689453 C27.72599983215332,-17.652999877929688 30.382999420166016,-9.960000038146973 30.382999420166016,-0.17599999904632568 C30.382999420166016,9.689000129699707 27.68600082397461,17.459999084472656 22.368000030517578,22.923999786376953 C17.062000274658203,28.378000259399414 9.458000183105469,31.145000457763672 -0.23399999737739563,31.145000457763672 C-9.77299976348877,31.145000457763672 -17.26099967956543,28.437000274658203 -22.48900032043457,23.09600067138672 C-27.72800064086914,17.749000549316406 -30.382999420166016,10.07800006866455 -30.382999420166016,0.2939999997615814 C-30.382999420166016,-9.644000053405762 -27.667999267578125,-17.45599937438965 -22.312999725341797,-22.92099952697754 C-16.966999053955078,-28.378000259399414 -9.380999565124512,-31.145000457763672 0.23399999737739563,-31.145000457763672z M0,17.382999420166016 C9.862000465393066,17.382999420166016 11.932000160217285,7.89900016784668 11.932000160217285,-0.05700000002980232 C11.932000160217285,-7.960999965667725 9.862000465393066,-17.381999969482422 0,-17.381999969482422 C-9.862000465393066,-17.381999969482422 -11.932999610900879,-7.896999835968018 -11.932999610900879,0.05999999865889549 C-11.932999610900879,7.961999893188477 -9.862000465393066,17.382999420166016 0,17.382999420166016z M0.23399999737739563,-32.64500045776367 C-9.847000122070312,-32.64500045776367 -17.719999313354492,-29.753000259399414 -23.385000228881836,-23.97100067138672 C-29.051000595092773,-18.187000274658203 -31.882999420166016,-10.097999572753906 -31.882999420166016,0.2939999997615814 C-31.882999420166016,10.531000137329102 -29.108999252319336,18.48200035095215 -23.56100082397461,24.145999908447266 C-18.01300048828125,29.812999725341797 -10.23799991607666,32.64500045776367 -0.23399999737739563,32.64500045776367 C9.92300033569336,32.64500045776367 17.816999435424805,29.7549991607666 23.44300079345703,23.97100067138672 C29.06999969482422,18.190000534057617 31.882999420166016,10.138999938964844 31.882999420166016,-0.17599999904632568 C31.882999420166016,-10.411999702453613 29.107999801635742,-18.381999969482422 23.56100082397461,-24.086999893188477 C18.011999130249023,-29.790000915527344 10.236000061035156,-32.64500045776367 0.23399999737739563,-32.64500045776367z M0,15.883000373840332 C-6.955999851226807,15.883000373840332 -10.432999610900879,10.609000205993652 -10.432999610900879,0.05999999865889549 C-10.432999610900879,-10.567000389099121 -6.955999851226807,-15.881999969482422 0,-15.881999969482422 C6.953999996185303,-15.881999969482422 10.432000160217285,-10.607000350952148 10.432000160217285,-0.05700000002980232 C10.432000160217285,10.571000099182129 6.953999996185303,15.883000373840332 0,15.883000373840332z"></path></g><g opacity="1" transform="matrix(1,0,0,1,636.177001953125,52.64500045776367)"><path fill="rgb(255,255,255)" fill-opacity="1" d=" M15.940999984741211,-29.797000885009766 C17.472999572753906,-29.797000885009766 18.916000366210938,-29.69499969482422 20.25,-29.493000030517578 C20.25,-29.493000030517578 18.297000885009766,-14.364999771118164 18.297000885009766,-14.364999771118164 C16.81599998474121,-14.621000289916992 15.069999694824219,-14.744999885559082 13.010000228881836,-14.744999885559082 C8.565999984741211,-14.744999885559082 5.0370001792907715,-13.821999549865723 2.503999948501587,-11.98799991607666 C-0.6200000047683716,-9.666999816894531 -2.2039999961853027,-5.711999893188477 -2.2039999961853027,-0.23399999737739563 C-2.2039999961853027,-0.23399999737739563 -2.2039999961853027,29.797000885009766 -2.2039999961853027,29.797000885009766 C-2.2039999961853027,29.797000885009766 -20.41900062561035,29.797000885009766 -20.41900062561035,29.797000885009766 C-20.41900062561035,29.797000885009766 -20.41900062561035,-28.742000579833984 -20.41900062561035,-28.742000579833984 C-20.41900062561035,-28.742000579833984 -2.7890000343322754,-28.742000579833984 -2.7890000343322754,-28.742000579833984 C-2.7890000343322754,-28.742000579833984 -2.7890000343322754,-22.739999771118164 -2.7890000343322754,-22.739999771118164 C-2.7890000343322754,-22.739999771118164 -2.7890000343322754,-18.141000747680664 -2.7890000343322754,-18.141000747680664 C-2.7890000343322754,-18.141000747680664 -0.07800000160932541,-21.854999542236328 -0.07800000160932541,-21.854999542236328 C1.8799999952316284,-24.538000106811523 4.183000087738037,-26.554000854492188 6.764999866485596,-27.84600067138672 C9.354999542236328,-29.141000747680664 12.442999839782715,-29.797000885009766 15.940999984741211,-29.797000885009766z M15.940999984741211,-31.297000885009766 C12.1899995803833,-31.297000885009766 8.907999992370605,-30.5939998626709 6.093999862670898,-29.187999725341797 C3.2820000648498535,-27.780000686645508 0.8199999928474426,-25.6299991607666 -1.2890000343322754,-22.739999771118164 C-1.2890000343322754,-22.739999771118164 -1.2890000343322754,-30.242000579833984 -1.2890000343322754,-30.242000579833984 C-1.2890000343322754,-30.242000579833984 -21.91900062561035,-30.242000579833984 -21.91900062561035,-30.242000579833984 C-21.91900062561035,-30.242000579833984 -21.91900062561035,31.297000885009766 -21.91900062561035,31.297000885009766 C-21.91900062561035,31.297000885009766 -0.7039999961853027,31.297000885009766 -0.7039999961853027,31.297000885009766 C-0.7039999961853027,31.297000885009766 -0.7039999961853027,-0.23399999737739563 -0.7039999961853027,-0.23399999737739563 C-0.7039999961853027,-5.234000205993652 0.6629999876022339,-8.75100040435791 3.3989999294281006,-10.784000396728516 C5.664999961853027,-12.423999786376953 8.868000030517578,-13.244999885559082 13.010000228881836,-13.244999885559082 C15.744999885559082,-13.244999885559082 17.933000564575195,-13.010000228881836 19.575000762939453,-12.541999816894531 C19.575000762939453,-12.541999816894531 21.91900062561035,-30.709999084472656 21.91900062561035,-30.709999084472656 C20.1200008392334,-31.100000381469727 18.128000259399414,-31.297000885009766 15.940999984741211,-31.297000885009766z"></path></g><g opacity="1" transform="matrix(1,0,0,1,688.7119750976562,53.17300033569336)"><path fill="rgb(255,255,255)" fill-opacity="1" d=" M0.9390000104904175,-31.143999099731445 C9.767000198364258,-31.143999099731445 16.718000411987305,-28.55900001525879 21.597999572753906,-23.461000442504883 C26.493999481201172,-18.343000411987305 28.976999282836914,-11.022000312805176 28.976999282836914,-1.6990000009536743 C28.976999282836914,-1.6990000009536743 28.976999282836914,3.4820001125335693 28.976999282836914,3.4820001125335693 C28.976999282836914,3.4820001125335693 -10.079999923706055,3.4820001125335693 -10.079999923706055,3.4820001125335693 C-10.079999923706055,3.4820001125335693 -11.690999984741211,3.4820001125335693 -11.690999984741211,3.4820001125335693 C-11.690999984741211,3.4820001125335693 -11.576000213623047,5.089000225067139 -11.576000213623047,5.089000225067139 C-11.23799991607666,9.833000183105469 -10.166000366210938,13.220000267028809 -8.29800033569336,15.440999984741211 C-6.367000102996826,17.740999221801758 -3.4170000553131104,18.906999588012695 0.4699999988079071,18.906999588012695 C7.210999965667725,18.906999588012695 10.083000183105469,15.619999885559082 11.28600025177002,12.460000038146973 C11.28600025177002,12.460000038146973 28.177000045776367,12.460000038146973 28.177000045776367,12.460000038146973 C26.823999404907227,18.36199951171875 24.030000686645508,22.906999588012695 19.85700035095215,25.98699951171875 C15.220999717712402,29.40999984741211 8.776000022888184,31.143999099731445 0.7039999961853027,31.143999099731445 C-8.991000175476074,31.143999099731445 -16.44099998474121,28.573999404907227 -21.43600082397461,23.5049991607666 C-26.43899917602539,18.429000854492188 -28.976999282836914,10.855999946594238 -28.976999282836914,0.996999979019165 C-28.976999282836914,-9.112000465393066 -26.31100082397461,-17.08799934387207 -21.058000564575195,-22.711999893188477 C-15.829999923706055,-28.30699920654297 -8.428999900817871,-31.143999099731445 0.9390000104904175,-31.143999099731445z M-11.755999565124512,-5.591000080108643 C-11.755999565124512,-5.591000080108643 -10.079999923706055,-5.591000080108643 -10.079999923706055,-5.591000080108643 C-10.079999923706055,-5.591000080108643 10.901000022888184,-5.591000080108643 10.901000022888184,-5.591000080108643 C10.901000022888184,-5.591000080108643 12.467000007629395,-5.591000080108643 12.467000007629395,-5.591000080108643 C12.467000007629395,-5.591000080108643 12.399999618530273,-7.15500020980835 12.399999618530273,-7.15500020980835 C12.227999687194824,-11.182999610900879 11.201000213623047,-14.211000442504883 9.348999977111816,-16.1560001373291 C7.459000110626221,-18.136999130249023 4.629000186920166,-19.141000747680664 0.9390000104904175,-19.141000747680664 C-6.382999897003174,-19.141000747680664 -10.708000183105469,-15.031000137329102 -11.571000099182129,-7.256999969482422 C-11.571000099182129,-7.256999969482422 -11.755999565124512,-5.591000080108643 -11.755999565124512,-5.591000080108643z M0.9390000104904175,-32.64400100708008 C-8.907999992370605,-32.64400100708008 -16.606000900268555,-29.673999786376953 -22.15399932861328,-23.736000061035156 C-27.70400047302246,-17.79599952697754 -30.476999282836914,-9.553000450134277 -30.476999282836914,0.996999979019165 C-30.476999282836914,11.310999870300293 -27.81999969482422,19.165000915527344 -22.5049991607666,24.55699920654297 C-17.19099998474121,29.948999404907227 -9.454999923706055,32.64400100708008 0.7039999961853027,32.64400100708008 C9.144000053405762,32.64400100708008 15.824000358581543,30.827999114990234 20.746999740600586,27.194000244140625 C25.67099952697754,23.559999465942383 28.756999969482422,18.149999618530273 30.007999420166016,10.960000038146973 C30.007999420166016,10.960000038146973 10.197999954223633,10.960000038146973 10.197999954223633,10.960000038146973 C9.026000022888184,15.258999824523926 5.7820000648498535,17.406999588012695 0.4699999988079071,17.406999588012695 C-2.9709999561309814,17.406999588012695 -5.508999824523926,16.43000030517578 -7.14900016784668,14.47599983215332 C-8.791000366210938,12.52400016784668 -9.767999649047852,9.359000205993652 -10.079999923706055,4.98199987411499 C-10.079999923706055,4.98199987411499 30.476999282836914,4.98199987411499 30.476999282836914,4.98199987411499 C30.476999282836914,4.98199987411499 30.476999282836914,-1.6990000009536743 30.476999282836914,-1.6990000009536743 C30.476999282836914,-11.467000007629395 27.878000259399414,-19.06599998474121 22.68199920654297,-24.49799919128418 C17.482999801635742,-29.92799949645996 10.236000061035156,-32.64400100708008 0.9390000104904175,-32.64400100708008z M-10.079999923706055,-7.091000080108643 C-9.300000190734863,-14.12399959564209 -5.625999927520752,-17.641000747680664 0.9390000104904175,-17.641000747680664 C4.21999979019165,-17.641000747680664 6.660999774932861,-16.799999237060547 8.263999938964844,-15.119999885559082 C9.864999771118164,-13.439000129699707 10.744000434875488,-10.762999534606934 10.901000022888184,-7.091000080108643 C10.901000022888184,-7.091000080108643 -10.079999923706055,-7.091000080108643 -10.079999923706055,-7.091000080108643z"></path></g></g></g></svg>